<mxfile host="65bd71144e">
    <diagram id="1e6Y6ggb2SgKe9F8GC6v" name="Page-1">
        <mxGraphModel dx="5264" dy="4164" grid="1" gridSize="10" guides="1" tooltips="1" connect="1" arrows="1" fold="1" page="1" pageScale="1" pageWidth="1169" pageHeight="827" math="0" shadow="0">
            <root>
                <mxCell id="0"/>
                <mxCell id="1" parent="0"/>
                <mxCell id="29" value="" style="shape=loopLimit;whiteSpace=wrap;html=1;size=153;rotation=90;strokeColor=default;fillColor=none;" parent="1" vertex="1">
                    <mxGeometry x="290" y="129.13" width="800" height="583.75" as="geometry"/>
                </mxCell>
                <mxCell id="48" value="" style="shape=cube;whiteSpace=wrap;html=1;boundedLbl=1;backgroundOutline=1;darkOpacity=0.05;darkOpacity2=0.1;size=130;fillColor=none;" vertex="1" parent="1">
                    <mxGeometry x="-540" y="-1200" width="2640" height="1130" as="geometry"/>
                </mxCell>
                <mxCell id="44" value="" style="shape=delay;whiteSpace=wrap;html=1;fillColor=none;" vertex="1" parent="1">
                    <mxGeometry x="1520" width="484" height="800" as="geometry"/>
                </mxCell>
                <mxCell id="2" value="" style="ellipse;whiteSpace=wrap;html=1;aspect=fixed;fillColor=#dae8fc;strokeColor=#6c8ebf;gradientColor=#7ea6e0;" parent="1" vertex="1">
                    <mxGeometry x="-287" y="191" width="80" height="80" as="geometry"/>
                </mxCell>
                <mxCell id="3" value="" style="ellipse;whiteSpace=wrap;html=1;aspect=fixed;fillColor=#dae8fc;strokeColor=#6c8ebf;gradientColor=#7ea6e0;" parent="1" vertex="1">
                    <mxGeometry x="-287" y="311" width="80" height="80" as="geometry"/>
                </mxCell>
                <mxCell id="4" value="" style="ellipse;whiteSpace=wrap;html=1;aspect=fixed;fillColor=#dae8fc;strokeColor=#6c8ebf;gradientColor=#7ea6e0;" parent="1" vertex="1">
                    <mxGeometry x="-287" y="424" width="80" height="80" as="geometry"/>
                </mxCell>
                <mxCell id="5" value="" style="ellipse;whiteSpace=wrap;html=1;aspect=fixed;fillColor=#dae8fc;strokeColor=#6c8ebf;gradientColor=#7ea6e0;" parent="1" vertex="1">
                    <mxGeometry x="-290" y="541" width="86" height="86" as="geometry"/>
                </mxCell>
                <mxCell id="10" value="" style="rounded=1;whiteSpace=wrap;html=1;fillColor=none;" parent="1" vertex="1">
                    <mxGeometry x="470" y="40" width="120" height="230" as="geometry"/>
                </mxCell>
                <mxCell id="6" value="" style="ellipse;whiteSpace=wrap;html=1;aspect=fixed;fillColor=#dae8fc;gradientColor=#7ea6e0;strokeColor=#6c8ebf;" parent="1" vertex="1">
                    <mxGeometry x="490" y="50" width="80" height="80" as="geometry"/>
                </mxCell>
                <mxCell id="7" value="" style="ellipse;whiteSpace=wrap;html=1;aspect=fixed;fillColor=#dae8fc;gradientColor=#7ea6e0;strokeColor=#6c8ebf;" parent="1" vertex="1">
                    <mxGeometry x="490" y="170" width="80" height="80" as="geometry"/>
                </mxCell>
                <mxCell id="15" value="" style="rounded=1;whiteSpace=wrap;html=1;fillColor=none;" parent="1" vertex="1">
                    <mxGeometry x="470" y="310" width="120" height="230" as="geometry"/>
                </mxCell>
                <mxCell id="13" value="" style="ellipse;whiteSpace=wrap;html=1;aspect=fixed;fillColor=#dae8fc;gradientColor=#7ea6e0;strokeColor=#6c8ebf;" parent="1" vertex="1">
                    <mxGeometry x="490" y="320" width="80" height="80" as="geometry"/>
                </mxCell>
                <mxCell id="14" value="" style="ellipse;whiteSpace=wrap;html=1;aspect=fixed;fillColor=#dae8fc;gradientColor=#7ea6e0;strokeColor=#6c8ebf;" parent="1" vertex="1">
                    <mxGeometry x="490" y="440" width="80" height="80" as="geometry"/>
                </mxCell>
                <mxCell id="18" value="" style="rounded=1;whiteSpace=wrap;html=1;fillColor=none;" parent="1" vertex="1">
                    <mxGeometry x="470" y="580" width="120" height="230" as="geometry"/>
                </mxCell>
                <mxCell id="16" value="" style="ellipse;whiteSpace=wrap;html=1;aspect=fixed;fillColor=#dae8fc;gradientColor=#7ea6e0;strokeColor=#6c8ebf;" parent="1" vertex="1">
                    <mxGeometry x="490" y="590" width="80" height="80" as="geometry"/>
                </mxCell>
                <mxCell id="17" value="" style="ellipse;whiteSpace=wrap;html=1;aspect=fixed;fillColor=#dae8fc;gradientColor=#7ea6e0;strokeColor=#6c8ebf;" parent="1" vertex="1">
                    <mxGeometry x="490" y="710" width="80" height="80" as="geometry"/>
                </mxCell>
                <mxCell id="19" value="" style="ellipse;whiteSpace=wrap;html=1;aspect=fixed;" parent="1" vertex="1">
                    <mxGeometry x="815" y="163.5" width="80" height="80" as="geometry"/>
                </mxCell>
                <mxCell id="20" value="" style="ellipse;whiteSpace=wrap;html=1;aspect=fixed;" parent="1" vertex="1">
                    <mxGeometry x="815" y="283.5" width="80" height="80" as="geometry"/>
                </mxCell>
                <mxCell id="21" value="" style="ellipse;whiteSpace=wrap;html=1;aspect=fixed;" parent="1" vertex="1">
                    <mxGeometry x="815" y="396.5" width="80" height="80" as="geometry"/>
                </mxCell>
                <mxCell id="22" value="" style="ellipse;whiteSpace=wrap;html=1;aspect=fixed;" parent="1" vertex="1">
                    <mxGeometry x="815" y="516.5" width="80" height="80" as="geometry"/>
                </mxCell>
                <mxCell id="24" value="" style="ellipse;whiteSpace=wrap;html=1;aspect=fixed;" parent="1" vertex="1">
                    <mxGeometry x="1290" y="180" width="80" height="80" as="geometry"/>
                </mxCell>
                <mxCell id="25" value="" style="ellipse;whiteSpace=wrap;html=1;aspect=fixed;" parent="1" vertex="1">
                    <mxGeometry x="1290" y="300" width="80" height="80" as="geometry"/>
                </mxCell>
                <mxCell id="26" value="" style="ellipse;whiteSpace=wrap;html=1;aspect=fixed;" parent="1" vertex="1">
                    <mxGeometry x="1290" y="413" width="80" height="80" as="geometry"/>
                </mxCell>
                <mxCell id="27" value="" style="ellipse;whiteSpace=wrap;html=1;aspect=fixed;" parent="1" vertex="1">
                    <mxGeometry x="1290" y="533" width="80" height="80" as="geometry"/>
                </mxCell>
                <mxCell id="31" value="" style="ellipse;whiteSpace=wrap;html=1;aspect=fixed;" vertex="1" parent="1">
                    <mxGeometry x="1554" y="180" width="80" height="80" as="geometry"/>
                </mxCell>
                <mxCell id="32" value="" style="ellipse;whiteSpace=wrap;html=1;aspect=fixed;" vertex="1" parent="1">
                    <mxGeometry x="1554" y="300" width="80" height="80" as="geometry"/>
                </mxCell>
                <mxCell id="33" value="" style="ellipse;whiteSpace=wrap;html=1;aspect=fixed;" vertex="1" parent="1">
                    <mxGeometry x="1554" y="410" width="83" height="83" as="geometry"/>
                </mxCell>
                <mxCell id="34" value="" style="ellipse;whiteSpace=wrap;html=1;aspect=fixed;" vertex="1" parent="1">
                    <mxGeometry x="1554" y="533" width="80" height="80" as="geometry"/>
                </mxCell>
                <mxCell id="35" value="" style="ellipse;whiteSpace=wrap;html=1;aspect=fixed;" vertex="1" parent="1">
                    <mxGeometry x="1554" y="60" width="80" height="80" as="geometry"/>
                </mxCell>
                <mxCell id="36" value="" style="ellipse;whiteSpace=wrap;html=1;aspect=fixed;" vertex="1" parent="1">
                    <mxGeometry x="1557" y="653" width="80" height="80" as="geometry"/>
                </mxCell>
                <mxCell id="37" value="" style="ellipse;whiteSpace=wrap;html=1;aspect=fixed;" vertex="1" parent="1">
                    <mxGeometry x="1808" y="180" width="80" height="80" as="geometry"/>
                </mxCell>
                <mxCell id="38" value="" style="ellipse;whiteSpace=wrap;html=1;aspect=fixed;" vertex="1" parent="1">
                    <mxGeometry x="1808" y="300" width="80" height="80" as="geometry"/>
                </mxCell>
                <mxCell id="39" value="" style="ellipse;whiteSpace=wrap;html=1;aspect=fixed;" vertex="1" parent="1">
                    <mxGeometry x="1808" y="413" width="80" height="80" as="geometry"/>
                </mxCell>
                <mxCell id="40" value="" style="ellipse;whiteSpace=wrap;html=1;aspect=fixed;" vertex="1" parent="1">
                    <mxGeometry x="1808" y="533" width="80" height="80" as="geometry"/>
                </mxCell>
                <mxCell id="42" value="" style="shape=step;perimeter=stepPerimeter;whiteSpace=wrap;html=1;fixedSize=1;" vertex="1" parent="1">
                    <mxGeometry x="-145" y="320" width="500" height="140" as="geometry"/>
                </mxCell>
                <mxCell id="45" value="" style="shape=step;perimeter=stepPerimeter;whiteSpace=wrap;html=1;fixedSize=1;" vertex="1" parent="1">
                    <mxGeometry x="650" y="350" width="120" height="80" as="geometry"/>
                </mxCell>
                <mxCell id="46" value="" style="shape=step;perimeter=stepPerimeter;whiteSpace=wrap;html=1;fixedSize=1;" vertex="1" parent="1">
                    <mxGeometry x="990" y="329.5" width="270" height="121" as="geometry"/>
                </mxCell>
                <mxCell id="47" value="" style="shape=step;perimeter=stepPerimeter;whiteSpace=wrap;html=1;fixedSize=1;" vertex="1" parent="1">
                    <mxGeometry x="1370" y="336" width="120" height="80" as="geometry"/>
                </mxCell>
                <mxCell id="49" value="&lt;font style=&quot;font-size: 25px;&quot;&gt;Token&lt;/font&gt;" style="rounded=1;whiteSpace=wrap;html=1;fillColor=#fff2cc;gradientColor=#ffd966;strokeColor=#d6b656;" vertex="1" parent="1">
                    <mxGeometry x="-1150" y="360" width="120" height="60" as="geometry"/>
                </mxCell>
                <mxCell id="54" value="" style="ellipse;whiteSpace=wrap;html=1;aspect=fixed;fillColor=#dae8fc;gradientColor=#7ea6e0;strokeColor=#6c8ebf;" vertex="1" parent="1">
                    <mxGeometry x="-770" y="173.5" width="76.5" height="76.5" as="geometry"/>
                </mxCell>
                <mxCell id="55" value="" style="ellipse;whiteSpace=wrap;html=1;aspect=fixed;fillColor=#dae8fc;gradientColor=#7ea6e0;strokeColor=#6c8ebf;" vertex="1" parent="1">
                    <mxGeometry x="-770" y="290" width="83.5" height="83.5" as="geometry"/>
                </mxCell>
                <mxCell id="56" value="" style="ellipse;whiteSpace=wrap;html=1;aspect=fixed;fillColor=#dae8fc;gradientColor=#7ea6e0;strokeColor=#6c8ebf;" vertex="1" parent="1">
                    <mxGeometry x="-770" y="406.5" width="80" height="80" as="geometry"/>
                </mxCell>
                <mxCell id="57" value="" style="ellipse;whiteSpace=wrap;html=1;aspect=fixed;fillColor=#dae8fc;gradientColor=#7ea6e0;strokeColor=#6c8ebf;" vertex="1" parent="1">
                    <mxGeometry x="-770" y="526.5" width="80" height="80" as="geometry"/>
                </mxCell>
                <mxCell id="60" value="" style="ellipse;whiteSpace=wrap;html=1;aspect=fixed;" vertex="1" parent="1">
                    <mxGeometry x="2360" y="173.5" width="76.5" height="76.5" as="geometry"/>
                </mxCell>
                <mxCell id="61" value="" style="ellipse;whiteSpace=wrap;html=1;aspect=fixed;" vertex="1" parent="1">
                    <mxGeometry x="2360" y="290" width="83.5" height="83.5" as="geometry"/>
                </mxCell>
                <mxCell id="62" value="" style="ellipse;whiteSpace=wrap;html=1;aspect=fixed;" vertex="1" parent="1">
                    <mxGeometry x="2360" y="406.5" width="80" height="80" as="geometry"/>
                </mxCell>
                <mxCell id="63" value="" style="ellipse;whiteSpace=wrap;html=1;aspect=fixed;" vertex="1" parent="1">
                    <mxGeometry x="2360" y="526.5" width="80" height="80" as="geometry"/>
                </mxCell>
                <mxCell id="65" value="" style="shape=step;perimeter=stepPerimeter;whiteSpace=wrap;html=1;fixedSize=1;" vertex="1" parent="1">
                    <mxGeometry x="2510" y="350" width="120" height="80" as="geometry"/>
                </mxCell>
                <mxCell id="66" value="" style="ellipse;whiteSpace=wrap;html=1;aspect=fixed;" vertex="1" parent="1">
                    <mxGeometry x="2860" y="171.75" width="76.5" height="76.5" as="geometry"/>
                </mxCell>
                <mxCell id="67" value="" style="ellipse;whiteSpace=wrap;html=1;aspect=fixed;" vertex="1" parent="1">
                    <mxGeometry x="2856.5" y="290" width="83.5" height="83.5" as="geometry"/>
                </mxCell>
                <mxCell id="68" value="" style="ellipse;whiteSpace=wrap;html=1;aspect=fixed;" vertex="1" parent="1">
                    <mxGeometry x="2858.25" y="420" width="80" height="80" as="geometry"/>
                </mxCell>
                <mxCell id="69" value="" style="ellipse;whiteSpace=wrap;html=1;aspect=fixed;" vertex="1" parent="1">
                    <mxGeometry x="2858.25" y="667" width="80" height="80" as="geometry"/>
                </mxCell>
                <mxCell id="70" value="" style="ellipse;whiteSpace=wrap;html=1;aspect=fixed;" vertex="1" parent="1">
                    <mxGeometry x="2860" y="53.5" width="76.5" height="76.5" as="geometry"/>
                </mxCell>
                <mxCell id="71" value="" style="ellipse;whiteSpace=wrap;html=1;aspect=fixed;" vertex="1" parent="1">
                    <mxGeometry x="2858.25" y="536.5" width="80" height="80" as="geometry"/>
                </mxCell>
                <mxCell id="72" value="" style="shape=image;verticalLabelPosition=bottom;labelBackgroundColor=default;verticalAlign=top;aspect=fixed;imageAspect=0;image=data:image/png,iVBORw0KGgoAAAANSUhEUgAABU8AAAE9CAQAAACR91sxAAAABGdBTUEAALGPC/xhBQAAACBjSFJNAAB6JgAAgIQAAPoAAACA6AAAdTAAAOpgAAA6mAAAF3CculE8AAAAAmJLR0QA/4ePzL8AAAAJcEhZcwAADsQAAA7EAZUrDhsAAAAHdElNRQfpAhYBBhpY148CAABANklEQVR42u3d+3XiVtvG4Xt/KwUokwoid8DMVDC4AyapILgDvKaCLKYDPBUkuAOYChLTAbwVZKwO9vcHQtZhAzqf+F1aKzGM2UjisXi0j8YKwDiZiT7ovT7I0zt5kg4KdNAPre22630DAOAcQ3oKjI+Z6XdN5V34la3W9qnr/QTyMzN9k6dAPyQFZ37pdCv2cC26zVxLeQok/ciU5svTo/3a9RHj1hhPL/IvxHhU1WDvcpc51frM342nd5I+97O64qeudwBAnYyvR81jTwTa6qD/FMjTnXxNw+enmpqlHklRMRi/y5PkXbztOnl/9Tc+h6XpTHkfuz5c3KAP8pUnxn3j20POMj9f+bvxuz5oN2pPgdEwvlZR+inttNLfNsj81lSPsd8K2rt3Np6+aSrpyT52fa4wPMbXTL/oWOfjahvY6RDWEP2np2zkZ0p70Mz51XzQThvX306FfSf2kYuZ606epOmZ2DzooECb/Fdt42muj2f/Yv6p0krQaFxbNja2EWzytI49XMu/+NsTvcQeLlrZw0nswbLr88U29E37xMO9vBpKedG8XDlX3oXYZyu8aZ56Yq9JpfI2ibIW1SO92bim9hQYATPXKnqw1UOeZh+zinUCeLafG9/Hfaw2oEDPKcAlEU/Se7srVcprVKe002NT7QjEPspIJWj31eLTTPQS/vhkH2rZv0bj+v/qLQ5A24xnNrHk9MHe5+uTZB/01qgzM+uG99JPJBNBm2cI42O8ZDyVTE6XYXIa6LN931hySuyjnLy9S/N5F/7/a03JacNxTXoKDJrx9b+oJ+lBd0WGOtlHPUcPZmbR6I56iUe9HCmKAZkmHpWKJ7PUMea/2p/tc5kScvKq7ytuUvKma1KxtGMLWX29RL3Eo9rjmvQUGDAz1T66SDzbu9xjOUP2c+z+fGmmxV5d6J12sbvrHcNDUNF94tGmeAFmo4Wkg943HY3EPkr6J/GoUuO58TSXtKun5lRqPq5JT4HBMvPY1/JTyd6j8YtKsw38n3SQFOirvT7pD3BZpdpTMzH7cLzxXbluAQUR+ygjWd3woVJZx6t7vWMMGo1rhkYBAxU1TUqVuronurczFTkGwHh6jT0M7M+FXr3QUq1OqQaUYXztYw8LxnmipJnWyrFYRZ9QewoMklnFktNtpQabZeznL10fF5BD6bpT45mNlpK2+pXkFP2W6qzlGa9cOcbTN0nbISWnpKfAIJl5bFKog72vUJT0d+xnr+EBUkAdSvY8NdNwIOGDva9z0n2gIckEtez6Tt/kqe6G/caRngKDY6axiaTSX9WF2SBxCfy966MDripVe2qW2sgrOr8F0KEaep+aqWaSHoZ2Q0Z6CgyM8RNDmHJNwX9F/Ot9UrYBCWhHZs7TPItQeOZFCx0HQ9U7myTQnOTAvXJj99eSdsO7JSM9BQbFeNrE5pur56KTbBxtcHopoAaF607NTP/TRIE+1zetDtCCfeJRiZlPzWqIDfsS6SkwNOtEzVE9F50g8ahiZwGgYQV7npqV1vK006+NTr4P1O/fxKPCfU/NVHNJj0NsMSA9BQbEzBI1R081XXR+JB6V7X4PtCPZA+9i7anxzV5zSV/t+6H1vQMqD41aSdoNc7pA0tObYWZmb5bVy0F3wulB3tS1TkeQeER6ih4zXqKJ82LPUzPXXr4C3bNWE4bIBsmrsynUvG+W8iX90fVRSJLZmJdie096eiPMSmv5JB4Dt0yscvy1ttqgZO3pu64PE7ggWXf67/lfNGutxAynGLbS9admooWkr62si3adr4leikxcSHp6A4xnNuFquwPsHo0T48fmOpWkP2srOpmQerXtsWeWZmNezavZmCUzAqAWuXqemonZaybpsZsZTol91CR5A/axwCvXkg71thtUiOt7BZKWZpX7FZZt5Js87WVlte96T9gqfpLrxMN1jSVPkk/UVOoi89Si63PINvxNL4mHE+fvLC79awv7SOyz1bRpnniY+7ofxmCtfwHV4lq+XoscQz27PNWrrF7ld/1BsmU+m1Ny+iqv631hq/RJ+qknarzsaJZ8opYyj8n0ixaaaBZelqzmXZ9HtqFvyYeOf/e0iR508p1E7LPVt2maeJizmin8vljVuieV4zr6Ftvk+u1adnof/lDrqWCr9bPpqBaBrbZPcpV4WGtdePqeuIYSjxey6M5ay+ifuIllq7Clvqw3jn9/jT2ssY0h9x4S+2w1bvKST+R81Yvq/paoJa6jv98cf5k19D0106iz7rxSQaid2YSfzeeedI5Geb8lHuXvv5NHci2SypNVmXm4iN7bdCZvk0szghpVXOx5Gi5b+mZmWh4OSuyjXume03ki2iw0kVTjEhR1xbXdhns1u94H9aca9js23MbMh7dw1niZdThH5mPVyaiNp5cw0Q10HOcd/7+n0+Ca5E/S0+U1Wswm3MN0qVIQleWF/5UCfXKn2WYV3hpl9+64H6cS4j/t7Psze3W+NMX2KlWaPl0egGEW+hIehWsf38VKduyZmaUGLNU7vXhyLHTF9NT4Wkl6SlwL3vZ+AGtSEe9dx/sFZ1eMMp6+O1bVeazzS/qaocd+3yP/RmN/l4hr/9oV2vhaSnqqb76KOuPaPpk7LSTNzf7KfKw1VPm+xh7k6lHA1sYWNdjW8Jk4OkTn214vljotXJ6zG3a68SP35tVa2pXuE9XKSg2LqnmYW+phxU46Wmc/+XjXhHr3vYmNeM+xNRrvecuNPX/qCzfLfHpekV2ptg099vsd+bca+6mr/9XBSNqo5tEmdcd1NLxxeum3Kjfum2miVmfKBBr9YCY6TsEf1LLsZVDydX9f/NcfOUt5U+fshbtap5s5XO0+kf/dXGXNGjsP2caiq4tEXixtcpzOJ/X02/31EBbXC0q+jnh/k//drpcVMWfqTqNlS+/ss/2aeu8vNR735b0bfuwHJV/X58gffuz/k3h0d/mXzVxTSX/Ud8wNxPUpK1lfyhirN+6nq/R/E837nTOevoc/1hKk9slso6YXXx81TTU1p2210z/aXn5vuzN3muhev10sbaeDDvrn/B+yDczP8qO9+13nV6bYaqe9fijQj5yl3V9ouMhRWsyv+iBfd5qdnVh5p632+jdbVmatjUoJZEbqCCt2BfkiKUh28jFe7JgHMEE68V62tJgK8X6Bo+ep8XXsY/81muHxSfHJvxfmz5ZmPh187Pc78m829pPp34dLv2o8rSQ9V+3Ql1B7XNuDedRSkqfvOt+9oXKlb/qJl/oqlNlKfyqniVUa62yRam6Ib8uijQryUjMZnraNZpWOPrmVnNYlNWL+tFWYxVCTaD6FnGet2ebK1GdZ6S84bC5bXtj/Up9p1xvxXuHcFY73C2Vl5jwNZ4V8jTcTZhptl2Xeq/C+jTL2+xz5txL76UkFr56Rehv2G4rrKBbO/nVW3fGZ48kaTwxbqU/lbRrfBj+LMxeaUhNYZeb0tFqV3/f0JPOyutLHpXBplafYTly0Xq5NzNFqz9NKxxZeEVLHEzva1yqld7kR75XOXqF4v1BO8qEX/mVs0mcvNumNlW2nz+dYY7+/kX87sZ96ePaMhTFY621QU3Edi4UzsVR1x113VqyO0ekmr51poJ3d3UvXvCUebKrND+jq8F6pvOxTlecvjN1C5BiIlPqCqLVOPPM5Vjv362wUJC76g50bmXivVGaheM/5GbyGX5GOb5zMOWnhW2mssd/fyL+d2E/VwZ5JwMPv/prbTJuL66i2+kyFS9Uddz3ZcPO+vLrrBOsvscstumVo/F7d0WxRsr42cU9dQ1Kdfare0qrHS9TukG/1jNfEw1qbKuud7l8z7dP37ol3GPDyEMR7pbg4/lDpqzNdJyqr/dmal2Rct1BzOd7Y72/k30rspzoxnDlz4Xd/5T3O7H9DcR27uXB+p1Xb7fmZf2hwbYywx0ON71B/iV1usTvdxpfQc05CUip1eruLqudzSKVztuIlK1NaDZes4xdtzlu51MNaP9nU0TXQOy72Y83dEtrdiPcKZRaK97OlpJuZL6w800X9qWMv3n4ccOz3N/JvJfZTN2bO+srwu7+VpXNjP1aK68srT1Xbxc2Zf2jwQhAeTp3pae0ldrlF97lt1Ba4Zo0r8b5RSr2v677PcbdfoWRH36vqDT6vRcpJPSzdt8pRcvIWs4Gv0MQ7DLrjD/FeoczXOspJPbxyK9V+/WlmD0YS+/2N/FuJ/dR1enP2fVoZml5fXMciy3GrWWHeU+OdnYahyVU6vAGU2BkzjyZ7aGH5PBs4JhHzzKxYKcbXWpJ00Pvapn/JlvOuQmnZWfu8artnFvIkfbXl5kEsPovgeck4WdZY8kn8ajDoSeeI97IqxvuplOT3zfWpc5LR7Jn2F90eSez3OPJvJPb1b+KRY2ops5In1TLL+XW1xbUNom+gmclOElZDBu2q+G+sl03Yu6LO2tPaS+xui5omWqopcIzDLHj/Jj/c5xrvp531+hVqHB0DACvVX4Z3jAVqKlMPa4vV9FCThiNk8GvKEe+lyisc72fKSTZw5mjEbHbGi0LRMvDY72vk30rsn18tLfzX41ClVmro643rWP1pJp6qrBp1zKCfndnz743l7ZPqRTReYkfMPLrT+7Odd7QHZacVnpjcZ9R42oRrE9d5P+1axcIrXkgke0ftlyjlzbFWp0gbQ1D9lDgl607/aOAd4ke5augoWkO8l1I83t2S5znPVODJ+PaL1vdVNKLY723k30rsp74DMmd+LWl3ZQX7utQa1zbQqRVkkmofKZ+eGi+8WPxlA8eForlmlGrB0k6JXXlrzGqvIcmVCOf8YzSeXuSriUtWtrQqDT77zDNe+cKMr7mkrS2y0kbyElzh3RN7Mk10z9nWus7IyduVIGik/LYR7wWVine3eLQGeRpL7UHJmGui88p544r9fkb+rcR+unk/kbWYpXy11bBff1y/pbipv8/ytafhLtpnKexREuflv68qwtSeStZfYldidafblpbwk2SfHZeH+aV1dGO+R5esutei/i/zTL49csu2BfxSobTjX0ux++nk+aly+Y2L3/kGTVzczCx23v8uX05/EO+FlYl3B1O87lRKJ1Ut1p+OLfZ7Gvk3EfuS0t8BH99+NBMtVL13a071x7XdRseWqo8vn56emvbP7WQzw6Om1YtovMSuvJ3xdhuSXHfVOWrPzSasf//UwJ9VkHmm9EXGzBzdP7yKpRW9lGzqeffEniwTd+B/NHJLM6LmzQjxXry0Or46k1fqTb4X2V0qkW2v/nR8sd/HyL+N2Jekl8Sj+H6uJR1sC4OhJTUT12/lfEk8X7Fz7PRs9+RGBudEHZfrGxxSe4ndbLFVHFqeQKXcpCPRea9xkqRY6dnFdtely3p1PFm+tH2ZTyg1MKGGaflTJZY+ntyRMeBZHy8c1Wkj3s+VVirenSUlv2NyX68zC1U28glcjJKRxH4fI/82Yt8qM4w1iqlwaHpLSz40E9eJUr23H8vWnh4z6CDqU5HNoj3TRL1k/U0z7XaWb87bXUfLDUmxrs1vrnz6ZhWe98+19MrJCrJ7VK6gcFqQtJJdQsxCvkpM+mUPiaadKx1njJejyS3eIWdnm+m1FL8TTl0hzMK85GwY7BnivVBppeLdqXDP0yO7Sw3qaaf+dISx38vIv43Yl870PTW+lpK+2l3xAktpJK5tEPsbjdfHV7gvSKxd4Pil2lcYjt0n1bXiRO0ldrXFfmx96bxM/YTVxQknogliGlvfwjENSqnpik/TgmT+odR9Y5VJRpKT6lw47nVUA7A5P215YsLyxup2EnURnuNMtFKP1cBxEe+FSmvgnBeq0cqsGd9C3I0z9vsX+bcQ+1GZyYe+VbiMQIu1803FdWx60tjRlCvqFKSxXXHMF1ZpcTHn+76t6FBXelp7id1s8QaOTt7/xfHkmTMaBWKTa4tlm6HKXWSOUZ29KJdqsjmVVsMRORNPxwzE7sXv4mt+vNa9QnP0LvGkYO3cg4beufmNeC9SWi1HmIztgulO6vNqfA7S8cZ+3yL/FmL/zLmfRWe4tVud5uI6cd6jeCpX1DL7sWXuUMMTWOOpcR5Av0rsaov1y+pk+ufUkmvH7XJqVHvdeup90k+UWYJvctrT7D+WLq18T6Z4/anjUw4vXhtN5VlpEv5+5qsh0VfrtWjcy9NMizx/2Ykb1qljXwc8UTnxnru0mno1l+15Gr46/e1U9hbx5mO/f5E//tiPSk1WAS7CeuPK57cfcR2rl43GVlQpaHm2+NNW68eTuEDVk57WXmJXW+zHBptRcsREYnP81ik1amQozpkzcnZvrpbxorB2MXt0JUurEGepWoLUF2x44Uh8+q772URyWnj9ltiX0/7akcTOWerrIrx413rz2vZGvOcqrb52rviDMulHstG2xNcosZ85tgvR0V7kjz/2o1KTLQhrbVTD0Ku+xHWsw9nbsK8SxZzqHCdni6/wweY4iTV98PWX2NWWSDk6Oo7UgoPHLZUqR3UYLdQdOC6iXqmzOrfKfLmVOM9haZXG3Cc+50T/qvDMZi4Oekm+ZyLmC38K6SVQL53RRDKdvpFda/CjmYn3XKXVMMeEVabPY5nkMj2+u2D9KbEfHUHPIn/ssZ8pN7lVbNjvT1y7spgyxRzT0MyuOLtN13SXmOn+XDkJq7/E7rZYlXvLk0pdOJ+ZGInio1TH9cL7k+0jVfQi8/p2BI7Sin69vdbx6SS+GuJp50bORh7N4++auIEs0SSUmT7uQp+yxNVg5viXAdcfWRHvuUqrb1KdZL1Rqb6M1epPif3oGHoW+WOP/YtnvnLddH/iOpH8hntRpphXWTnvDRx3MbXcPWmSKbliMll/iV1usWNpoSnl7F5sHE9G93byw70s3KBc294UusiEieBpXt/swL9Cd61haTV8LSWOK7qUnNuj8LLhW2kSu+y+ltuTzN/MhbvlxKU0cea1V2tfXE1uxPvV0mpLw1IpQ6kao8wZKnZEr6knbjj2+xX5Y4/9RNnJhzUMa+1TXMf2ZeM83hxFnCqDHemcs9q/+gl0DbqqlEzWW6I8+ZpoqrkWWmqtjV60P3OGfM211v54f6W9XrTWouLRxIOmo56nZ8/qOtrHV1m1ecmqdJEJ7+SiZN/RcaXA5ScsraavpcTFePlW/oV3XiT+MlelR1cWqqWIXWxi7xd+LgO+GYyOhHi/XFptaVjme6VEeups2ytyhoj9t+PoVeSPO/ZTpSdbAOqo7uhRXMe/2cJnSoaCM8d2XgIqJUzyXRNWVTkVdZaopXOViTMlaua86zxu+/KTbyT6E3Y6m56j146VZyUv/JfC48Qr7Ev2IlMgEtN/cI4br+Kl1TbJSGJvXjQJ/4w95+8mH+6r7IXjLFyIt1hcRu/pGsA13I14v1halUibaqGlllpp47zGbrTWSkstrl3xNNVCK+d0SFZWe621zHNsxH7i+HoU+WOL/RylH7d6WqZ7FNeJfZlYlUlPj/87k0w5wrbUSZSvmRYX0rnL26SNEp13bfHNT7z76Z1ftdZCc821TO3NvmSjVXwvvOpBUiG8XJOOLDu6ZGX/7HLfAIS3WfG+ndkZRXN3fG9ikhHNEl/ax6/wTG9STROx8VL9bjvz933xohTF94smmmgR7vMovqCtiPeLpVWId2fvxvObd6EkL2cZOdIJYj92dD2K/HHFfoEj9WoqszdxnaiVX1gVTk+j0VXnJuKtqXm/4nFO2igxf3r6No4xM1eYl0pRSyQQsfDqbGDUhbP8GtVctLqaVaWLzEv6XDoux7mHFoXH7zVwhK+pp1600FwLrbRJ1RetL519zQpczlfay2of3updfJ28TL1GyVuwvm6Op4j3yvEepjmvYfcn17bXaxj9m1x74y5pH3azytkQTezHji/7VEeRP67Yv1L+2+j2Gm90+hLXiZvJtVXx9PSYkJ3tWeG87y3RbF3xONtKT6daaKHlmcaj0+QIs8sfYurjLvhRJz7SzjvduyYXK3dclfckOwlHzotMeHmaXSkt5x1y+MqG1k3J3R5wKTk9RpBX+L2vXsqsrDQJ/zr22oyl7ih2dMS7ez8aXSeo+43Y70/k31LsR90nG5qwq+u4jlW47K2sflIxM0nSX+f+2R7MTpPUk7/ra8F3ke4zz2wSjx50OP9iu2ulRNmttqefja915sglmanWkrb2/mzZD2YqP3q41s+FztSH2M//FnplE5aaO5+/t9uCJVUVZJ55l/sYpJ19TjyXjQ0vZ2nfJB1s8b+AXOxXfZXMVJ/1Tr48+ZIC/VCgf/WifxVoL0n6oN3ZQr5ICmyQ6w3j3sl1ltN7uNNDM8feC8R7WqPx3hvEfn8i/4Zi3+7MVlNt9bmhN+g6rg9RDuUbzwbl7lK8C7+zcDxZxyT6gywx37JjqeaEQtP5Jl7bgzt0Z21eB3UpjmF6ueqWw+4p6SUn/EqldTbPYbTfZ+//w7rTMrOgvqrjoXh92Ih3R2mDntcz13G+6uZjvy+RT+zXeCZf1WlcJ7pLTqz+r1Bue8yZtxdrWp4cz80ayrX75jnzzErSzl6517DJczZXEXexnw+FXtmMleO5jx3sR5B5xrv+IuNrIek5U1v+I/Orfu7Stvb5+u82bHr2X9aS3J/a5WPz5KkfEdct4j1dWh/ivVHEvqT+RD6xX5MexHX8vX0VSU+NF37JrS/9lg0czYjjbeJISn2wZqqpAn3K8cp4g4hnJjlecRL/0/lR4HUNsc+Oi8XMeK3vSPZc5GnwOV5y/8gcVfaY8hzRUlK30X/aS884bhGNZ140lbSzuwJlHk0lBfbWv6KJ97ju470dxL56FPnEfl26j+t97OePhdJT/Rb+/+8rv5e9q/JNjvuPEfgv8cjTStIfuXr1JdODaY5XnMTPbD8umH86nitWI1yDMhcZM9VU0mOJfpiu0iaaSXrqydfYN8f+vYQ9ff4sXNqxL3f7vcz6iHg/ltaveG8SsX/Ui8gn9mvTfVzHbzR8FRnQHo5OvzpmzDnXXKH+lM5Skw/72fc02e92rYtLhCVemex9WmBcXnxyoeb7huTaI9fnn/M81Lofr+mnrr5if35PHZODe1dKe1Ety85VOgfxXlkvianO3nqOlfpsuu6l1J+NeA9f0YN4b/FME/u9iXxiv8az2O3CPonvqwJ9T40X1rRc7aVmA0cGfhu9T4PMMT/mfGWyeaJIXbN35t2788HxnG+K1AjXI9Pkc7kO38zl6/wnlr0vfneltImkP+u5Oy8t/u4T7c2reTGvxmoTq6Ev0SBl5vIUdDBGt4+Id/Um3ltA7Ef6EvnEfg16Edepvqf589pFvrsSK+fMYZWn6k097GftaWZC39yvTK5inHt6/cQow07uWzN7NDnzD42tpHF2T7Jz0V6e/fNVF+qtHeNUL95nHqf77vrTyDHfb6nPRa8a/dyWOc8E8f4WET2I9xbO86uIffUp8on9Ws7hq3oQ1/EHRUbu/y7JNTbdwTl67fdOs/Ju5L8TSd79eblf17Oep8bX9zP/1H6n+WId5pfydKkmMcg8c+F4zLXS2hNc/NeDLTGDnlnKUzD6uS3znAni/Xge+hPvDSP2w/PQp8gn9ivrY1wbL2d6avywaf+vfL/vSGM76DLduXX1Iq7wYj8HXR+u8fQSTk3hCvO2IyB7Pryze+5rrstd2wtcAKNJRvrQAHh5IGOZ5HSqhRwjXm8P8R6V1p94bxSxH56HfkU+sV9Rj+I6iP38Lm/tadh3NPesXtk01uukT0q38odsUPId8q6O0YLokhXovXNM55eWd6hID6KVpOBiT+Eg84x3sbS+3E9f6it+X3xCKeNrLel5yPP71YN4T5TWl3hvELEfnoe+RT6xX0lv4zpv7Wl4+p9y/rZ7TrSmFuLqrx7MQ9qi7+GSmu9tYANHrDjn3mzQf5ln7ty/mGuSkWxpv1ws7Ws/JhmxuzN/tYHeF7/jN5428nToxX1214j3eGk9iffmEPuRvkU+sV9Bz+I6njPlqz01k7CPY5HG6myj4m8FXj0K5Ufy5e69E/+9TpNhc5pD81P4p+qqtWv3HjPIPOOd+c2VpIO9fPOVfyXmlaTA5p2zoXH2wdHV5km/lpiKX1rLV6D7YY9RrQPxniitR/HeGGJfUi8jn9ivor9xnbP29DisqdikA9lU9taa94MW3uOX6kXUwWzCS1bUXGx3jtXDpq0uz5CzB5FZyNf1C2qQecZ5LFemLOmE/ax7PesgKdBBX3VnH0pejHba6f2Q6wrqQbxHpfUw3htC7KunkU/sV9GvuA7iD37K9ZJjV+d/Cy226fJwU2tttF2bGXR1oGYdzqL5OXED86fjFuWxxfvq7PnwHPvu6YvydG3PdQE0npa6fnfeOrut5y9v4PUENSHeY6X1Mt6bQOz3NvKJ/Qp6FtfJc59jJqpJfdNa1TMfloYx72mBmdAS85daXV2lInrdKvag8spcJY/6tA/zzL+81hkBhffLzzz1cnbvr376jtL2Z0tjRZkRb8R7pjTi/Sa2vkY+sT+eLTHn7DxP436Nd0Gtd5lGw8wirFt/dNxFOu4rTXuTjmTvgTNNNOEkI3m6tue4ow5Lex72JCO4hHjPlEa834QeRz6xP04/8uSzrzUmx6VXlEg9pPb0+Lpl7MGqqTuaHEfsfO+u12TOPpX5jY1yr9GVs7RaIomtnxvxnimNeL+Jrd+RT+yPZUus/zW9WntqpmEvjjtrim6OKXupPR0RMwtHbT5bZw27DRxjxrtZk/nc/k+Vv2t7kHm9l3g0gklGcAnxnnhEvN+MoUc+sT9QV7PZtaxK3gk5+nA4+q3kLCv5kNrT4+s6rD3VNPxhc+F3XP2WN83sj+PdXzNPJc6r9nL2UTpT2j7zlJ/595x352zD24h34v02t/5HPrE/li1x5ifX+54e6ztXV3/PlfoeHFNO3N7k/E2KTyDc6gpSZqKNJGln78//lt055pBrb9KRi32IwklG8k9GHGSe8SqUhkEh3kW836RBRD6xP0pX0tNoKFPZyROyi5tOc085j+uCbt7WTPQiSdrZ91d+del4rq0pR7IXzOhyGU4L8lxgcvoLF8BwypJd75aFQy2Id0nE+w0aSOQT+2MUXKs9PU7Ivyu9ooArrb251aMaFP8z8tp6U+PruyTpoE/Xftc+OVLotsZ0Zt/Zi346XkyL3AFfLs0rWBoGg3h3lOYVLA0DNJjIJ/bHIt4G/ONaelqhaV+SbOBo3m/4jspsjDWv/S6xNvF7xpYaUoynF3mSDnqf67bFtSZzO5ets/fAZqK5rq28nHb2/jyaZKTMMqHoOeI9QrzflAFFPrE/Ft7bj/Zy7WnUtP93hbfLprYTmvdrE8R+bqXvaXTJyr9Kb3drMmf3zwv//01SYL8WKCvZz/fotKTs8Qi5nx4h4j2GeL8hg4p8Yn8UEplhcK3v6TG0tqWb9iV3atvmhL2jlpjYwmvlLb/LlxTkX6XXHhwLak4qL5Cbx5mLjJlpouKXmCDzjBeWNlXRu3MMBfH+xgtLI95vwZAin9gfh3gV2+Fiemq8cH3d0k37kmQDR8j+3vVZGJHg7cfma6XNRseLzadCM765Os1/aXpfdb6J5pvKdG0/13x0XHm52N05BoF4TyDeb8bAIp/YH4d4B8V/L9eehkOYKo9QW2eembQ44cTYxf8sG27eN+vwhuV9sZ43duu4eMxa6OIRZJ7xJLMo2bX9XGm+8k/3jAEh3p2lEe+jN7jIJ/bHwYv9vL+cnh6b9qtPn+Bq3mf1qLr8G/u50aTfrMJP7b5Et3BXDXzzXTwc98DhJCNPJY7Bsa5zWNqWSUbGh3jPPEO834QBRj6xPw7xDOZS477xwsr9v66VeI2zeb9qh2mv9hNTf4nt2Md+brCXj1mGF5nPdlvi5a4Jxppv9Akyz3j6JqncHXC2XuBd2JjV3ux+aAnxTrzfpkFGPrE/Dnexny/2PQ3veGq5V8jeUfkNdph+J9fdT79KrE/8zvCudClXmJUWkqTP5eLBBs5JR5quQ3fcA2umkl3bHa/xNJf0xMrLbWhzvg/inXjvk/Zif6CRT+yPQ6r29Pzapy+yqm0dd8dTy4IlvCYeTq+s2ppjdd0GSpwnHu4LHJ2fesLL/Uov9iD3msIFz/0m/GFRoQzf8WRD+xt7V9eTBT6XHKW95v+s2Eqed1+b8K/15dLfaW3vR7yfL414b3VrN/aHG/nE/hi2WE72amXP1Z6aSdhQ/FJTVpy9EyvaHyV513Kpl6WvZI/M9krsgA1izRqN9D01m7Cb/HOVEYv24FigofkhcoHjufLNM67S/mSSkWaZmfaahp1vJtqYRcPvR7xfKo14b1G7sT/oyCf2B894sS6W/0rnG/dPE0TU1aSdbd73CjbvJ/vBnF3/1+RPq+sv0St9fsq/Mp44e3U3AhkvumQF9nPFwv50PNf0KMhs/G5L9ag6VxqTjDTMeJmZP5Zm2ty7Ee8XSyPeW9Rm7A8+8on94YvfwmykM+lpOPmsJN3X877OMCl2Z5MconX+j/T4L3nCsv4Su7GJ/VzrParx9RKdl6dKRUmyz641mRvuVZV9xypd27P9jugo3zTXTIqVZmI+j3hPId671VrsjyDyif3h+xD7eSc501Mzid2z/VZbUGU/7kIBa3fJ9eXPvvZB0iFPB+b6S4wWPjsqMgtplRlL400pNd5bm4X2sXT3nxqKbH8FsfQ98NdKXduD1OMqd+fI54PjOb+JoRbEe0aQeky8t6ul2B9F5BP7wxdrwT6e7Ux6amaJZmzPMal+CcZz1usVm3Bidf21Zipf+e8w6y4x2V2hSFN7uqNDgVrQxJ/Nx/yvu8TMzD517165Xtb4p4UeEr40elcdpB79Wa6YUPoCyP1089xxV/O6c8S7E/HerRZifzSRT+wP39vt2KnKLTZqytM8HK+f3CqPGJTvLNeq4MwAqVJ8x2/sT2O+2i9Rk7JHJ0/71FObQudlE/1Y4NjPHsUqNadBWHK1KNDcWaqV1aa58ZBaJh7Oay2t4NwTbKXOufvKUTnOo/KJ97ylEe8tb83G/rgin9gf+paYgyicOeIn42siX79ocrZheKKNOWirvQ5550IzvnxJnnzd6cOF6eLn5jf9rb0O4b3PDx0ujI77nJiEfpOe59Os5UuF7poqlRgepeTpne4dK2HNzQf99XZsb6tXGC+6U/D1Xr9lhkZNzav+1ot+KLh6VqR19Nl5xi/epGE8fZCv9/L14ewgLU8b86yN/i22BoeZaqKP0ehTl6lezbP+ic5Tvo4U+fwX+/lgq/aqipdW9e4c+WydVw/PeOVH0RLvJUoj3ttXe+yPOPKJ/aGL559Ri/C6UIrr58yEF6WT6It3PZomHsbu8+SHdYiF6h2rlVjw3NnYK+fFXnn5fjYx01zhu8azNdvnttw13pqVjIF12eDJ7EH8PE9qLa3i3Tlb7rP+6ny69KdJvJcqjXjvYKs39scc+cT+0Detoh+j9oH/K5HldshudRcb0ORpY17Ni1mbF+01lbRTwUkx6i+xg7MSn2mu4FwL0eK1+eUfxlW2l5RXy2mR4j2InkusvJz2FifV786R16dUr7Lj9C4lBxMS7wUQ712rMfZHHvnE/tC91Z5GA+t+kqSwATmQlO4S/E7HEDr9P7/zZSYd/wRyv4c96M7MtYx+09Mk+rP7akvMrla5xCA8wtP/85+98q9M+yva44Jj921gdpqc2RfXZxMUmNpkE3V4eCs1fazZIz04J1QpJ4h+qmPevbf9pqN8a+zO/Kovmmqig3Z6tAezUOkvNuK9AOK9Y3XG/sgjn9gftMTg+SjujO16v8oezkS/a6Jj78+DDtroqdqaDvWX2OLZ8PQaPXhfw73jSBg/7Fv8WMeUytFZfrJcsjpkrKR7JnrJIt7Hjtg/h9gfMjOL5ogK7M/R0133OGCrqefGW7+iQrMhjH3TRnX27VvXWRpbqc/gOMKzcu+ycW7E+5g3Yv/i2SH2B7vFZh+KzZIw2NpTJJ25+wBGJqwl+XkoLRtAXYh9jFGi9TcW3QMbGoVzYgvJec2tSQ50zpckvqBxg4h9jNHbimLbeHSTno7H29xsvZ9rACjtNLwDuDXEPsbobeaHxGA50tPxeJv+4rcKpQD99lGxaZuBG0LsY3SMH807dEgO+iM9HQ0bRAmqZ+aVigL6ayZp0/VOAB0g9jE+b3MjpKYEY2jUiMQ6GB/sXaWigF4KhwDe1bocIjAAxD7G51LWQu3piNhApxnffDOrVBTQT7+r7rW6gWEg9jE+X6KfMjPMUns6MuY1XJFjZ993vS9A3YxVTRNvA8NC7GN8ohTUkbFQezo2p/H7E6aXwtiYhaT4IEDgRhD7GJ8wqiXpD8e/Uns6NmYfrl67tfdd7wtQn7CX0rNl4jTcGGIfYxS19joXj6X2dHxOF7Ap/U8xKsc58R4rlgIMD7GP0TGLMDkN3JFNejo6dhcNkPrW9b4AdTETzSV9ZWgIbg2xj/ExfjQJ/x/uldBo3B+lqIHfWWUODI/Zy1egX1nSEbeG2Mf4mJdwOv6z3RCpPR2nUwP/3EwqlQP0gtnIl/SZL2jcGmIf42PmYXIanF+EnfR0lOwumkNs3fW+AFWZpaaSvloWdMSNIfYxPsbTKvzx0/nbLtLTkbJPepYk+WZZsSigU2auhaStZWAIbgyxj1E6VZs92t35X6Lv6YhFfTs+2+eu9wUox/jai2UmcIOIfYyRWYSDoq5MlEZ6OmLG00s4ROr9pXsUoL+MpxdtGeKH20PsY3zMLKw7vTozO+npqBlfL/IkRn0CAIAumYleJEkHe3ftd+l7Omr2oE8KJHlhSAAAALTOePouSTooR4cV0tORs7swQfXNput9AQAAN+rYmnvQ+zytuaSno2d3eq9A0tQwyRQAAGhdOIPvLl9ySnp6E+xBv2onaWYWXe8LAAC4LWajqaRnmzM5JT29ETaw7/VV0seu9wQAANwYX9LD5amkkhi5f0OMx+h9AADQtqIZCOkpAAAAeoTGfQAAAPQI6SkAAAB6hPQUAAAAPUJ6CgAAgB4hPQUAAECPkJ4CAACgR0hPAQAA0COkpwAAAOgR0lMAAAD0COkpAAAAeoT0FAAAAD1CegoAAIAeIT0FAABAj5CeAgAAoEdITwEAANAjpKcAAADoEdJTAAAA9AjpKQAAAHqE9BQAAAA9QnoKAACAHiE9BQAAQI+QngIAAKBHSE8BAADQI6SnAAAA6BHSUwAAAPQI6SkAAAB6hPQUAAAAPUJ6CgAAgB4hPQUAAECPkJ4CAACgR0hPAQAA0COkpwAAAOgR0lMAAAD0COkpAAAAeoT0FAAAAD1CegoAAIAeIT0FAABAj5CeAgAAoEdITwEAANAjpKcAAADoEdJTAAAA9AjpKQAAAHqE9BQAAAA9QnoKAACAHiE9BQAAQI+QngIAAKBHSE8BAADQI6SnAAAA6BHSUwAAAPQI6SkAAAB6hPQUAAAAPUJ6CgAAgB4hPQUAAECPkJ4CAACgR0hPAQAA0COkpwAAAOgR0lMAAAD0COkpAAAAeoT0FAAAAD1CegoAAIAeIT0FAABAj5CeAgAAoEdITwEAANAjpKcAAADoEdJTAAAA9AjpKQAAAHqE9BQAAAA9QnoKAACAHiE9BQAAQI+QngIAAKBHSE8BAADQI6SnAAAA6BHSUwAAAPQI6SkAAAB6hPQUAAAAPUJ6CgAAgB4hPQUAAECPkJ4CAACgR0hPAQAA0COkpwAAAOgR0lMAAAD0COkpAAAAeoT0FAAAAD1CegoAAIAeIT0FAABAj5CeAgAAoEdITwFgFMzK2LPbvuu9GzuzvnD2N13vHTA0pKcAAADoEdJTAAAA9AjpKQAAAHrkp653AABQq60eM88FXe/U6D3qz8xzD5p3vVvAMJGeAg0wU91rKk++pED/aqeVPXS9V7gRB7vrehduj+vvmwFpQFmkp0CtjKcvWiSe8jTVVAvzpEcbdL1/AAD0HekpUCOzjKWmgZ601w/5+qipPM01N/d22/U+ArfDTPRdXvggkPQj9v9Tl4fjv79z/CQF+kRdNNA+0lOgJsbXWpPwQaA/7HP0L8voy25j3vNlB7TmS/S3d0w5vYKv9/RB/MUCrWPkPlALM9E+Sk53+jWWnK4Sjf3rrvd0GMzUrM2reTVr43e9L7fO+ObVWLOoXlIHflQugfYOoAPUngI1ML6+Rw8O+vTWx9RMUmN3fTOh/vSaWCeJmWbmjmFl3TFTHdc8+qKvXe9LcfbBrPROkuTpne7ka3b2l7fa6T8F+hE2+v+Q+FsFukF6ClRmPL3EGg3vEwOgpplfn9JYeJlZpAaXPeqh6326VWahZdf7UE06wTS+XOPpH+xT13sK4A3pKVDdt1hy+jVV0/dL1zs3NMbPJETTUgWhIjPVSqPrWmEPJvvk57fOOAD6gL6nQEVmkmguTE/Nna2poaH6smzja9D1Lt0eMzMv2owvOZXMJPNUQHIK9A3pKVDVt9jPT5mZTf9OJVd8FV7zMfMMg1NaZGZmZV5js1CMTbYu/u+udwlAGo37QCXGS3yNZ8bl28D8kXj2c9d73Hvp2uXAsVgkamJ8+XobNjQZY31pyn3mGWbTAHqH9BSo5rf4A9ek+/bZ3OlRH/SDpU1zWaUGRn1ira0GLc+MZA/0pHnhWUKHIFN7ylIZQP+QngLVxGtDz4zItwdGnudnD+Ze6zAx2uqBhL51z1rZrWRm40tPHT1PmUcD6CHSU6CaD7Gf/+16Z8bBbvWzmcjXlnrTlgQ66Id2+ke7kd8OZHueUncK9BDpKVCNF/s56HpnxsPuqNVqg721vtDZnqebrncJQBYj94EKjJd4+F/X+wPgInqeAoNAegpUkRznHHS9OwDOo+cpMBQ07gNAbsbXRB/ly5endzmHDh20sgNcr36E6HkKDATpKQDkYKZ60LTUWHZfS/M88iFHw0DPU2AgSE8B4CLj61G/VZxkqdqrUQ96ngIDQXoKAGeZiZaOJuGitpY+jp2j5ykwHKSnAOBkPH1zrqm000EH/aeDAv3IUdCB+Vt7gZ6nwGCQngKAg5lrlXrqoK3WNAcPFj1PgcEgPQWADLPSPPHEsx4Z3DRw9DwFBoP0FAASjKfvivdTfNIjzfNDR89TYEhITwEgxky1jo2zf9YfpKajQM9TYEBITwEgYqaJ/ogP9qnrPUJN6HkKDAjpKdArxtcsWpVICvRDBx3KDsgxnny9k6d3upOnd+FaR0/2MfV7Ez3og3x5CnTQX+2ucWSmetBEvjoffGT8WMqy02d6m44IPU+BASE9BXrC+JrpdyV7yHny5EuaG+lZf9nn3KXt5ef8zYm+xd7V00QT80WP7dQbGl+rWOLga6656SgxNJ5eogfP9nP7e4Cm0PMUGBbSU6AAs9Tiwj+vzMr5/Nbe66LUDJuBtjporx/ydacPYfI408wE+iNnipo3OT0d0UE7/aODlvIleVqZu3QdawPnc6Hl8Qxpo4N8fZEnaaIX86mDiey/R31OtySnI0PPU2BQSE+BzkVJmiRttUw3OhpPXzSXJ8nT2uz0R12pm1lrJumgx2PSa1axtHZhNs02f4bHHTsesw3rLz19N7+2OyTJrKM65Ku3Exgcep4Cg/J/Xe8AcNvMxLxGyelBd/Y+mxLawD7an3XqDzrRi1leLfhBj3rUVz0rOPveK80kPdm7MDmdpub6XKlBZq6lpK19/5Zs251OjfqevjT57pm9mUW11zuS0xGi5ykwKNSeAkWsUnUufiKF28ndHH524cvEOPEn+3Dpre2j2URTHi2Mf7n5Od5z1My0drz3THNJj7FhUOkSfeM31QfUTLSSq54yiH5aqPHOBdHeePp29ixg8Oh5CgwN6SlQgD0oka6lvvZ+FKuRSSyb+Xh9tLzdml/1vzBBnZkXfcrX/G2fzUO6JtR4Wkt6Srxrtr+qV/spPFlLChypYOwdzbS1Gq5l9L6sDTVG9DwFBobGfaAjieT0Od9UTjbQp+jBJDbO/Jq/M898k3RI1ddmE7Om6k6PA7BcE97HU+RJ3vIq7o0XdWrYtTulFlpCz1NgYEhPgU6EjdtHh/zjxO1Obymlb3J+yabTQONrJindmSBd2qGZwUnG00LSNjsHgfESD39p4t0d3nry0rA/Th/ST9DzFOg30lOgA8bT99jDQkNx7FOs39zULHK+LEg8epC0S39F2+dUk2dTydpx0JOrZ2myEfa/ht4/7VR3+kzD/hiZSaaTCj1PgZ4jPQW68D32hbktnBT9Gft5aaa5XhMfnnVszHakh/ZeX8NEdqf3zcw8Gtad7pyl/5541EqyaN5mK/izQjHoL3qeAoNDegq0zswTvSoLT99knxOJW/Hpn36Tp8DdvGkf7c/62RrbUHKqU12lOxWcJR61U8d16uJw6GAhALSBnqfA4JCeAu2Lz1oa5F+oNCaekvpmXvDVnlyDpSINT4f/cO6oTTI5PbTR1G686Fah0Vle0SF6ngKDQ3oKtMzMEz3h/i5VSDK5uz5Jf9a6xGvqOPqJfJ1rXE0O1WonXXxr+H2qUAp6i56nwBCRngJtSyaT+SeHiknVK3q5B0i9ldBV/dGxd6kj9TReqo9gO+niqeG3oVkK0Dl6ngIDRHoKtMrMUnU5/5YsKFkD9FDp1W2aSmeS49+Se9hSunhq+KVGbaw+Zp6h5ynQe6SnQLuSY9NVejhOMsHzjV/o1WWT4up8nasX7aJp/20ZgH86OyNoVqb2lJ6nQP+RngLtSg7/CUqXk54TdFbo1fvOjv+9PltHXa/xU2tEleuTW5Dxorpsak9Hyfj0PAWG6KeudwC4JZk5Sn+UKkbKJrb3KrIcZ2df0fZwZjbTZMr63FLT/ru3H01TS6gG+kG/1s7Q8xQYJNJToE3pGRiD0iWlk7x8k/OflE+Lm5KcHKutpn0v+qnR/ojmOf+ytahVY3OeGo+bDqA5NO4DbUr3EC2fJmZeWaj3adD1iUjt+zTRBHtorXfgu+pF5DJrrG4WlzXU89Ss9Vp4vmEAuZGeAm0qNoCpP2U3rZthUW0Kut6BW9RUz1PjaybpruvjA8aLxn2gTV7qcdBg2Zf0qnHfeKmBXe1NkN/OeTho1cYKWMhoqufpoyTpr64PDxgv0lOgTdSeuiRnPN222Kfv7Z1+pifhCDXV8/Q3SYfSk8IBuIrGfWAsful6B0pLNu23uNxqrE6z2NAyDEMjPU/DpTXG2AUF6A3SU6BLXo1l/Ve9iC6kZzy17TXtS2/1px+rFII+amzO0+PtVLtxCtwY0lOgTU32QBxq78bUjKctv/tp/SxG1o9PIz1Pja+p2u2CAtwg0lOgTUHqcfmJjbKvHGp62s2Mpyen+rQPXZ8G1K6ZnqfHYVE07QONIj0F2pROIb3SJWVfGXR9cGWkZjwNWl8P/TT62is0byyGoIGep8Y73k7Ztmv5gRtDegq0KZ2e1lh7OtCpi5JN+63354uNvn7s+lSgTg31PD3W9ZOcAg0jPQXalJ4p0StdUnpK8EGuJJ6Z8XTl+h0zM16DO3FKiVkDaFwa6HlqPC0l0bQPNI70FGiR3aWb4Es3KaeH8rQ4HVONkjOe7pw1wN+0bvToolSDRSpHpYmep8fktP0uKMDNIT0F2vV36nHZEePpoTx/lyqla3kWM52p0X61dhd1uaB5f0xq73lq/LCGnSmlgMaRngLtStcDlppv03ipbgG7IU5zk57x1JVim2Pjfz1r/ZxzSkt9s+j6nKAejfQ8Pf3t0rQPNI70FGiV3aa+JsutVpR+1TDr/ZL9Tp+dKfaxfrXRumH7HNWfLhm/PxK19zw1q/Bm6jDQQYjAoJCeAm37I/FoUiohSjaKbwfaFy55FH9lf8F4LU2B/rYnw+zDOyiNDnQ7qbnnqZlFQ+eoOwVaQHoKtMzuUvU4D0VLCJO2N4OsOzWe4ol54JxJ8jh0qvGEwG6jqYImNPA3x/hmY171aqx5MeXaDfLKlv5viVJO+z2J3bbQ8xRoAekp0L5kQlp8vHjyFc+2npXE25ZMINzN9w86l7jW7Y9o+NXSzKoUhHPMTHudlmGYaNPcjYCr52n5Gngz1Uv0gMVMgVaQngKts4dEguoVm9DI+OH0NkcH+7nr4ykp2anB0ahupppI+rONnbGB3s7jmgS1fsbLfMbLxmpQa+x5amaJbgE07QOtID0F6pN7DSj7lGgiXJki00vFvyADRx+7PPtWfrWq+iQXFnA1vS4lBfZrO7tjtySoKcko8SqWtnQ811SyV1vPU7NMJtUsZgq0g/QUqKL0F7h9SNTnfM87XMTMEzVDn3OPIvYuPOrGPvbzIdtkauaaqNV+tfY59m5rJulPR0nFIU0fHM/5Dd0GZEotM3jQzM2rkh0QSE6BlpCeAlUkaz0LjcG397EE1cs3YtzME/VNn/N+6WYSiw/5XteoeGIdOPZ4KWlnWx2IYr/GarVXZtPKGPOectToV4sa91/H7w3sefbGonDvbDM1e60yt3E07QMtIT0FSjOevqSeKfT1Ze/11nA9NftrTfxmFft6DPS+QENjumG1B/N7Jvb+R+afv8uT1Hq/WvsQS1Cn+t+tNvKbib5nnlwX6oSS5q7nr733qZk6uhEUmKnUTM3KvGrjSKdZzBRozU9d7wAwJMaLapB8vddvmdqVuflNW/2jQ1gf+EO6NK7ePpp/onpTXy/m8VxPSzPVMlZXu9OnyyOIzSTseODJ1++ZpVM97c1WO+31Q8FxP10N7A17iuYgSKUCZqOJinRdqJF9MC/RbYCntdlqOea0JEw5T9HyTp7uNHXWdXp6MQdttVcQxk14Y5Fr7oitcwFfz3hV4s748mL7/l4fnO8yNXMd5LoNOh65p3e6k6/JxRYQppQC2mPZ2Nhyb5oXfsnr1TJ9bRJPrDRJ/cZML/ESNc+xp8UPbtr62fT0Gj3wo2cn2svK5jnKxvZsEtszK6sXzbrbm9x7vQp/WBV6VR1v7eV6p1fn05Pyb6tlqyfYL/oCLcIfNl3HBhvb0DYa94GO2YO91/tY77i5Xow1e7Mxa7Mxe2O1jtUIPdqf2+2P2eCRB/oUPXgxCzMzC/OiF/mSHro8SrvTr4mhaxOtzatZmdkt90at7FOqj/GxpaDKLBJtdr3YsZgp0B4a94HiAh2bCU//z3onL/pvDnan92aqz7HuAn6mmXGrtf4u1BAa38/LDZsdjeW3O3MXJt9erMfgVg9dpwI20L2ZaRn7FDzNNZfMTlvtddAPBV3vZU2CK1HicmpQLxTl5ld90VQTHbTToz2YhapF3rbEohZlz9Eg12YDhsrYrvcAQIyZaKqP8uTrnTwdFOigH9qMeb5FM9VD2OvvoK3WferpmUpRyzlo1cbsrWYVJmtPtvBCud0wVtJ9nz7vmo9vEd50bW3e+YkBSKL2FOgZuys+Cc7Q2W35NX0a37dnPZu5HiulqL6W5nkkNa01CjtK5K2vBXBD6HsKABfZJ3un9/qanZ21AK/ro+ihYwcB0nYAGdSeAsBVdqedHo2vie71QX7BdHOba+qlW+NLUuvTmQEYANJTAMjJHnQ4LWxpvNyDgtqfUXYYJlKlGmkAo0V6CgAl2IDUqqKPUn97HQPoEn1PAQBdmEnadL0TAPqI9BQA0DpznFKf2lMADqSnAID2/S7pwHRbAFxITwEA7ZtJWnW9EwD6ifQUANAys5AkPXW9HwD6ifQUANAq42kp6ZkJtwC4kZ4CANp1XIn+sevdANBXpKcAgBaZieaSvjIsCsA5pKcAgDatJQX6s+vdANBfpKcAgNaYjXxJn+l3CuA80lMAQEvMUlNJXy3T8QO4gPQUANAKM9dC0tYyKArARaSnAIAWGF8rSTt73/WeAOg70lMAQBt+6KAn+77r3QDQfz91vQMAgFtgA911vQ8AhoHaUwAAAPQI6SkAjMvc2My273qnxs6ss2c9XB0LQGGkpwAAAOgR0lMAAAD0COkpAAAAesTYrvcAAFAD48s7+4+BPXS9f+PG2Qfq9P8KeVMZ8b6IvgAAACJ0RVh0Y29tbWVudABSZW5kZXJlZCBieSBRdWlja0xhVGVYLmNvbSBJ0LYAAAAldEVYdGRhdGU6Y3JlYXRlADIwMjUtMDItMjJUMDE6MDY6MjYrMDk6MDDsSPZoAAAAJXRFWHRkYXRlOm1vZGlmeQAyMDI1LTAyLTIyVDAxOjA2OjI2KzA5OjAwnRVO1AAAAABJRU5ErkJggg==;" vertex="1" parent="1">
                    <mxGeometry x="-109.35000000000002" y="340" width="428.7" height="100" as="geometry"/>
                </mxCell>
                <mxCell id="74" value="" style="shape=step;perimeter=stepPerimeter;whiteSpace=wrap;html=1;fixedSize=1;" vertex="1" parent="1">
                    <mxGeometry x="-1000" y="290" width="200" height="80" as="geometry"/>
                </mxCell>
                <mxCell id="75" value="" style="shape=step;perimeter=stepPerimeter;whiteSpace=wrap;html=1;fixedSize=1;" vertex="1" parent="1">
                    <mxGeometry x="-1000" y="406.5" width="200" height="80" as="geometry"/>
                </mxCell>
                <mxCell id="76" value="" style="shape=image;verticalLabelPosition=bottom;labelBackgroundColor=default;verticalAlign=top;aspect=fixed;imageAspect=0;image=data:image/png,iVBORw0KGgoAAAANSUhEUgAAAfcAAABKCAQAAAAMX9WzAAAABGdBTUEAALGPC/xhBQAAACBjSFJNAAB6JgAAgIQAAPoAAACA6AAAdTAAAOpgAAA6mAAAF3CculE8AAAAAmJLR0QA/4ePzL8AAAAJcEhZcwAADsQAAA7EAZUrDhsAAAAHdElNRQfpAhYTChALFV4OAAAV70lEQVR42u1d7XXbuNJ+8J5bANep4NId0JsKlu5AdipYpQP5bAV7lA7krSCRO5BvBRupA/FWcCV2wPcHIQoYgMRgQFla2eCPRDTxNZhvDAaqwUf5KNdZVIYb5MiQ4xNyHH4Bm+bu3GM76bzbOd/gtpvzDTJUuFNhclc5lihGGkmNHWrsUGGN16Y6N2AuragMfyB/407/br6de95jFzXBH0M426hzj/Aksy7wl2Zo/sIi9wWmJxpfjVcsmtfzAOcSi1qhPEO399e2BgG0vlLprraDoqJufvk/Rivbk40vwwQrtVWnYif/vHJz7gG8i3JlzI1ZfgbZYFtUrrlGawPcovRykVcs0a+eZwBucIccv3rUjQoPzebc8Dh/UQW+dNC5Qd6rkNb4CY4pdAMYNmtfubs22KscJVqcu8WvDhSvTpvRs87wqGf9CYWjJz4139CIHuydV/OI2gXmntcRLbyXBxkWntcrUVs5Jlh6Vq5Bdu55nhiKs/c1Xz3rCXlRNJA2tSUv9tEtZB6SX54bRJf3IPO8zJNapMjfnHuOJ4ehjfjrc4/njWZdWD/3DRpwbHdfocp8tHLU1M0THsjLiVqcRQu65OKaTZu0HY3mG36xDIH63FM8efls/bpKRd5TbMz5CUBG7sr1Hq8k7TQvDsFP1ewsoLnc4sI6GV2bGncGkV//dqhtu4tw9R9YbCa3AoTkjnvnjRAFmxe8kFdz9db7zpddXFh/T2+0qfF79+P6yd1mmT/PPZyzzPoVkJI7lTh1gnr5p/PmQ6E3iyPdx/GiNy8dmV85uStbtm+a+twjeqNizrtusUZG7nRjI0G9bDYOupUf8v1QlLsRN57leWjpdHEVl1E8Uu76i/JqNAJyH8ty74orrb6+HVguvIwNa7Os9b9XLt2JOfReLHfvrCXSfTTLXRcX3SZvBpRLL2PD2iwHG/bayf3Dcu+wRkLuY1ruAPA/582HMn8oJ7LcARw34HbnnuQpy/u03FXms9xl5D6i5Q4A+OQZ7gfBw2u5jxnsqsn8ygngXVrufRpNNLmPbrnDG839Qe7ASfbcj0WT+bWr8l+sX+/acpdI9/GtyV/PA5F/QHFhPT66Xju52xrSu7bcJeQ+tuXul+TXjoS84lruI0p3lQG4ckgTXfT9WO4mTdVHf088uY9suSv/0cyrdh/xyokt98PZ+uvedbf1o3duuUeT+wksd1/2lup9cOFAOanljoNWddXSncDwnVvu8dJ9fMv93vPuvXDh4ZJkuTP2Ntov6nNP86Tlw3K3qCmW3Me33H3S/SNqHkiy3NUaWxUKVroFcNXSneii70Rn7Lfc48l9bMu98CWyurZUSpKSYrmrNukVK+/dVWcDfp+W+6P1y9Joosj9BJb7H553HxHzQJrlPmF9/x0Vns89zZOWD8udzPpfCQ0BiRxTZZ7o+M11pg2MLimW+xcwzKxmo9X56y22hvRe8GogjjCO3KmCmWq5uwmna/yWNleVocRnlDprbo0KO2zwfUwDQWV4xB1ukCNHpq/K+IkVXke0DsWWu46XHgm5VYY/UCJHhgobrJrn4Pcl7vFrB/8dNljhRxgyzsrtUGGFFymODVnuqsAXPasaFSp8b17iWh+cxyPukOv8vwcIjHSJispR4h5Fh92vWJgtk43tmuB9VLI7+iIxlaST4LJBmdTeFOveP+4xHyMDKaZYDfx5mZY2sietYIOIhIo69eR0lHGUTubafX/LKAdgMwgZFFj2/nElwwqS+nTRvZ/0YMkiFT9QYD6Agcm4wRk5pnafpIWoydBXSSjlZkSVp5528tquMccUE8ywsBB2ljRiE/n3WOo+pphZCZ2T+kiHjWaiI7CdDnUWmGJmMOeF59vCQMUVFphhginmYegjN0h9jYWG6dwSBgLMIKQx0X0d3u71GGcGi9q3Xwlxw+5v1WGHORMxxWBiwWOlx37Au/1hvQnbJP2loWACSnkSKouyp2u0PCLVHjPKpS0yXct4ODIDLRYoPF8c0TY5gbZHSjIlnF6l6ETgnpZa9r49rnI/wXfZ8NeYOtA3M+U7BN8lhfZoX1bNaJiSn5nBvtY2NFGkMWtC6muXqDHpepC0n1v4QOCkBZ0meKKNEQqN6ZSiYBJKOYr8QthOboG6txWLh0ezKWTdeLc+UjcQZ5sym/5lYUOj/Y+YdTorlBlvzHztHRSQ6RXY97EkC3NsQtPMqU/qDbOKwdGX1s9tJ/e8Ehy5lOAtMdBg268fdN8VMe0TqG99uKu/2Brr3z4OhcZ0S1+IZViHIMdHqMZbGsd+GJBGn/s4CW8Qe5CMum8jF9VqQ2i5G0ibbFBoSWiRoaWRrUmfAytokd7WeN8S4IC+RdA3YtWo5a6Jrbcvy+Zlrx3xbQwyeWT62y23dWcevdin6WBGNHCHQvndjma5I3ckuxA5LTtlG0IGawZRN4l0jIK1UBq5ExR6meVu1UpgNrq1rW++1o/cQOEALlhEoeWfJsDAzGw1VrBm5jO4JsYYmQRJ1ilID52c5rMTtjmj57seHhEffCNZ7k47WylqWojAk34me+C7vo4jZowU00Mvslk5M2ufPjU5Q47y2Ofhkfet2y0Z6DLrFP6gX8Ea36pBh8hBRm9Jtwi56Hm1jOiJIYDIKrF8K/zWDRi1TwDDifHSPnlP/9GTE1numI4m121zICjZdS1bQ+HVOaqTQXndWe4R7Q8ghfxJttzb1Q6MbKmJmIHoFintO9WZo7PYG0tMmHqQP2yGmXWC2E3oganpxnh2bJiFZ865t5GPAPRFlLKKgmzJNGiwknr2DVu6BQW7HWsMLPlucNgyOCp7hsEF6oWVrOLxSbTctY3uWn6552MWohOdbsLHIHKdI3d/gl43ytALyOwGt+SINsV2zGq8ZcyczICxQejM2dMLd5jRljsy5MgxwRwrzyXDi6RNPJuzRuyV2jUZ32f8r+nVzOLZzYQVj0+i5a4lqkNazhXCbKbvue2Xax/bfTLXmtiwTIFg/RjQBshKR/iB9D9BQUO0E5a25tCoh0K5QbTugY2F8LbWGn/iOSXYVM2t0TxHhT9uzLqqDAamHk8XhUdMEiWJJ+hGy3/tOaaaAchxi9JOAJYcMPwAeIN2P5PfVfPAaQ6+BGWymqxTfiTtMvC7IIC1N4OimpHg79+DbR1qHuYSOP2gMiytF7xDY3SOPtxmcqUV88P+Z48lpumxXoTbR3oQiCUYVMJMpS34rW07icOBXV2IUccMxEi33Htacbzd7Dk6Nfnqb7RS69tzj5j38fHiqmPQRERYHOYS/M42FbiOvcCee4MU6c45gtEeHtliN9YZdpUTvvcU2YCdA68Mfm/qAllAJ1lg3v3/WXquz5MBgNFSU+FebbUkTDzoqdNi+FqxZeZLxBxtGV03/EPOdp81q46tOUgPv5Te48FUp2VjoMrQXmYeOmQ0IedEuYeUOef/WHzDtdyTw0RlD7XJouvb0j3MZ80fYYurjStfyyOvvZY7l7sfaiYdM+osU8f+d7CA7yClAdMRrkSJ+1OqZ4VH6XgvYmT7Qf8anIMDK74eZHsUvL41XkNiFBz3cYAdPQpnJnGgH+WUGRMpjg/T8XZgZckjWMO/iROI2BpokWyLRdS0V4DF3umqsfuiarqHvTuGFndtsk5BD7m457IeHCbnZca8bDanvJgwpszJ7/hcLPSCqsEEjo7yvlBznZ39dMVxEbHNoNZQSTeacgA/PO/lN6naNWOU64FETL1F6jKluJDRD9SMvNvw1kaV+K9W0J+H8wV0Cv+hsI1gJ0Od1znJI3c3IeUZssmpKVmQF4F/ny5pyNNLe5hhr5Zqciqil1nu1lzSGfEdHry2tY0FP3iNeWrKGQWvpjRDXRH8gqZa+x5uVBVqiZVe1W9BnwXtgc8aeXfhMZQE13If4bxV/OMoUgIL2Yk8CoXO9Cdd2GOJWXpsOukv5Zz7nDMj8chsLIg75mH/jNidIWvOgrbYcqdrTQ/5ulEHgzNBYeUIYJ2llxoLPMudZbtfhuXuGUUmaIW+CIDTG4lMn9V4Nr38nHt/4Kv32zwWegT+MS4qG4YR7lVqTbPqUH8Le56OKCCM1lmbrdNzjkKnVBGd+HRwPAZWe+tnDyNio5H1jCzTRIsh0DA8QaBBSTOQjMhamHFYoGTP3arLOyo0RaR8TopklLv4BDWJDObvubvpVuSZYEy8WEQwbHEOCM6eewPevrubJPHNLXdVOFb3UtCMO5NwtNUD6xa1DHP1Ffdp6Qc99+XF5JbPwLVUnxB/e4z8nvSxXHyntdzdKDrLMajCMRrHUqHCBn9jE4MPSTjOXJ0guXuuNziHV/6L8ybGVXQod+R3Ha7SVOoO//FeW0lLjrX6LYkVpuSWb9eJ4zxqQ26jQqAJFsTdxyJnFJKaNtnymYuL5zapurtTdjBPDWCXlJvZwfGIMCYuY4xUqBqcx3KnKnWkKtqjLDENApIga/hJOfrjOgYjHG+Y8VamnUvkyOSWu+3ii7FGRWo5+ZmxewtZ5svhv6c/Do7FHL3ZWz97cTAeDOex3OkLQS44j3UWE91VMkk+Kk/O4KI16SEznj4KCfzOYrnbBMZzdsndghT21FE3Um7FgRE0wyMYqMm03Dnk7rwae5qM6YySOIsG0CJaEiPH1HucN3lsnkVrkMQ6entZimZu/8wiaorSQHj65G3CCZmLB8OKwdGMHmHpGQGbqQ7nljefQJjNhVjurhtFMgp65DLazmqq5rm5b37BLR7w3Ht3auyxnUM59X3uAFSOCRB7o0mS5W6vHfvKZXJ/LTe6zD6iy7fc4wPJxl6bFBxnuzRDUXXjXwIpKc5dZiKHCJ2L+DrEpmpemq/NLW7xzePuy1U4PstXku5zZ5aWFc0ja4mdbYErjIaK7bjiRpfZvm3+SKmbjNR0oyhHvzmX4ngdwVT56xOlirGVqpEVHZInRrTnHhkTFdGyaySIFL3TW+7aXIh2MiVY7jZsItaN/OQeRbFgyO7L9eoQF6ljaI3vqKOuQL4hwrbcw0dkLmDPHW5ku2QMVHaOdEUf0Dw7nFlws2rKnju7tFI9PgvRm++5C1V5+1gLH34UyytnC2xHv4iAQfzIAeBv4egHV2eQ3C/EcncLJ/CFlkfye/CwgspUwT8G01QErXNuTaOc3HLXdnu0EXOWPXd7dbyqvCoDRhPbT+Co8o73xZnz+ORORdqIlrsqDkFCw9L9Miz3EXirmhDu+dwv21Wptthjjb1ackm+ebXGJEGG01vuCz3zOrKeOAcf1VgiDnPafXr0EVVihbUaYqx8oUB1ibCnQCJw4gofhwIsVWVYY9XqS8Pkfinn3Clw48mJHizs9Z6rBVaddJ5EhDGaKCJBBvF97ryiJrqHeFVeHgQrle126kd/KGqbPnMIE5hYQgyHPkdmPfBrjEJEGpcpO85Qd9blERqR0v0slrsL3F1cdVWQEMmnPmCqkqBayVbpTRLnq5GHfk9suasMf7WtClbw7aPlbVXez6Ae4YNR3fP/oWKLgqonAUX0mkaWauDXUAmvzj1woNwBcr8gyz0V1Da/rppvvV+60jzeDpck/zi15T7X7OTP2IoEC+JiFUSMwjkq4jkdoUpk8J0QiBQEgMqJKOhLiG0zqyy2H6vPlSdpe2394kM5zFINxjgk3S/FckezIcCIIkFVkJncD3yZefrmlaM3XnJ456SWu5ponaWOysnfFvmeeyGz3Inj7NWribXy35XD8WaeLQq+9Y7SnvkniItaosTU0Rr5nni72KaIa7nnFmNk77ZG7H6O/5BdyaiMLSTWfaCuZwedHcZq9CLYzz/lnrsRRy443JQQBGsHtLL33El0uneXv69Fq09O9hg7dHVwta0f8svOF/6xk71/7uGtYGZlDZHCM4eB6fU09lYPCZKJQTo7s+cs4tsGbNI1Qh3GSbsxWrS8hdCZoL4IHg0cRsFmNfZP7xctCnsYtzVbBpYQUTCcjMoM9hKG2eg2vBc8WmyOd7U4jbP3YI2dV5jf1Jky1HmBwY84sk9Iha78pdKdzVYMVBBoQB6tIuIm88D89/FQ68WCqLz+5Cc/RXNwxbBHL0EY8+XcC2D+DGgDhClnAmi24mTvhwW9JZcBqT15tfB8Y73ngqLBmXLLd+MxSYKJdsgtgIQvbDaZwzLi2oQjUYhglHbOfaBdW1uRMCL58VUiLtj1bKLyMFw9qx7iNOYcuhE92JNTYxX3fc8q96wDYXSStGoOg6N6UExjJ8pxygaXKd85dlkuuN65Aesu7Z6RCVVw99UI0KIpOURjS7DchdHyBOmLnr/3zsYi4mywHxM7eNdWm21HwRO5xpHtEBlbbD8gOPTK2AzdJfctLOHY15jvjvFseACnfixgB20bQuxMRNVKeZQq3ZHEVgahFAdhT4sTj5tVdJEV+RljuYuuNWxA3JZ5T7tDRHM0rAZW3WKGfL+CuVb88+gHHWkVcWvRsNuwHf2cMGSakmNCZ+dvLHdydzQ4u3QnDrvBbCK26h+RC/TA87n3smUd2kiJ3ZfaWu73LTH3pt+Ivk1P44G4DUmGeF3TZBSErPW6hiTfoe+eERur1iBSLTfIi6UFYtKNhoFTFt72Kf0H6lw4+EMz47ffGaNUTXvdTBugn+EGtyh6b0Z9wQo7vQeeloZPumc5NWKsvjXeUFiVY2HM4Lk/hs5bu9Q73ox6atbt2m7wG6cXlSMzYH1Hb2bXpcYTKoSCRo7tZPiEAvlAPEIPrAKjnVoRbS/s29yhcivKsG5+iejVrHtn7oPr8bw294EWyi5qwTNmVWDZQapGdDJRteqwq8Jd/6qrDI940j1t8MCjFrXsdtKrxnOysluTbkXN8Zg11BwzAE92UNk0yHL6nzPcA2v5mlcO98/t7RKRe6roepj3ctgC804D2rNNhWX0YMZ6Mkkl3s0k3pr2xmkknhj9duopsr4d6x4s6fo2547MsnaXQrgc13HrU+mRYRL6htX62sZvI1/ixOrtqIt3a6QNCGISKKwYt5z3lSCfPUVROeZGLNEGr9hi58jKCvNGmK9GZfir66HGT1RYYwfgBhlucYPSiBeL0B5U8/bQAhAll63xLg041/g3X0siesFdggR9xgo5PuuRsDFOlVjqVarxA2vskOPewPUNnuSHkNQEf3U4UOEVW1QAbnCLHGYQ8Cvm8b0YWiPwgr9RIcctHnWPjqagcqy70TxjjQxfUMCrfRy3WvbYY4sttlhjjZX1rLHGGltsscdeS78Im3jsB4XHGXV8VukjQ4FFIAnlFvO4CLozSfe1NG+PJaPjJJTpdBLlbPWEPLFuWQu0ccAPkePSaX0IP9aYyfMlIe/B7y1jA/I4y4y+OpvAGaOoCe6Ra5u1xg4VNliNeXBUlSjwGQVuOkmxQ4UK6/Gy4VxyUVM8IZdIQlVijgIbvEq8BgCgMkzxBTky1PiJ1cDBpqFWJviCXLeywyvW+CG4Obiv9QJfUOBGt19hhxrVODioMjziATludNuv+D6kJakcX1EiR4YKGyx8Y/h/Hkrq4p7ZbToAAAAidEVYdGNvbW1lbnQAUmVuZGVyZWQgYnkgUXVpY2tMYVRlWC5jb20gSdC2AAAAJXRFWHRkYXRlOmNyZWF0ZQAyMDI1LTAyLTIyVDE5OjEwOjE2KzA5OjAwaVtsFwAAACV0RVh0ZGF0ZTptb2RpZnkAMjAyNS0wMi0yMlQxOToxMDoxNiswOTowMBgG1KsAAAAASUVORK5CYII=;" vertex="1" parent="1">
                    <mxGeometry x="-970" y="318.5" width="156.34" height="23" as="geometry"/>
                </mxCell>
                <mxCell id="77" value="" style="shape=image;verticalLabelPosition=bottom;labelBackgroundColor=default;verticalAlign=top;aspect=fixed;imageAspect=0;image=data:image/png,iVBORw0KGgoAAAANSUhEUgAAAUIAAABKCAQAAABkgJXOAAAABGdBTUEAALGPC/xhBQAAACBjSFJNAAB6JgAAgIQAAPoAAACA6AAAdTAAAOpgAAA6mAAAF3CculE8AAAAAmJLR0QA/4ePzL8AAAAJcEhZcwAADsQAAA7EAZUrDhsAAAAHdElNRQfpAhYTCwbm2toeAAAO1ElEQVR42u1d4XXbug7+2HMHYNMNlA2UdoLnbOC2E9TdwD2d4B3fDdw7Qetu4GzQKhvII0TeQO+HaFkASQmgZPtdu9SPRDIJkiAIgCABmhp/0nmTsbhDBosMb5Dh8AY81w+XbttJ+930+Q73bZ/vYLHDg5EQobH4iuzMbf5V/30JVJ0ymTm+Io//XptLt/Akvc7xj5tm4SQkwi1mF2j9Y/10gVpPmAaQfaWc0JS9DGxfv34lgnN36Y7cRLqyKSdMv4G/RBk/4WPLTu+QRUXKHr+xE8C7Azq6UCy9XBo/k6d7zABYAPd462Fxe+nmnSg94IPr9RvknkzdAqgTHlisA5+3SbAyzLFBFfjJpsD79zxY3lZ/Xa/n7ENepxFhDdjAx2zSIakvja4zD0dx6facqdc5ea1q1JDphH7yVc3nWiKIo6n+G6+JKN+fTVxcKr0jb7eiEVLK+Q0gmQj91fJoJNZ7PHRIbxRJ/ysS1QmvVSPkiU69LZBOhI/el+/j21fv8al9uX4ipBP596Wbc5FePwETcsL6eYoW1j9b4rtyIjSUDz7X+0u36Eyp2+99QzVJRGh8E810Gs0BUnk+vFwkBTjC9ScT5P5pnNDXCKfTaAr398o5IVNobkUjDPY6jQh9jXC6mXzQja6dCP9ohC3ViPaOefILTbf1bjIniF9fs5Zk8pbjA1e7a+z12qLqvO7r180/CZwwoBFOsihxyW3WXTMJ4kY1whj3TxHHJ7ARHpMjvmsXxh/J201rhGlE6GuE0yPx2omQSpOb1ggn4oRTnvszFsCVEyEzVNyIjdBYsmW3P1qW1UR4Yo3wcHbxuq2EVJbcuEaYwglPqhHisMF91ZyQ4fDGNcIUIhylEZphT5Umx/48eLlQ+qMREtY1ASeUa4SmQGnmA5nuAVw1J2Qa4e7WNUI1EY7RCE3jFiDyVxl3NvH/PN2mRviBvBHur+WEYzTCuSj/d+zw7Xy4uUD6oxGyXiu37QLOn2LHTFMgP27V3G5iKL/q7clOryvi1PbQFccyb7tjStYIjUWOyYSPsfiKGTJY7PCMbf1tMP8Mj3jrvP73eMEztvgxTADGYoZ3mHVK7rDFz1SFoU8jNDk+ul7tscMO3+uf0+ALMBYf8IDM+TgeMPA0jeJjMszwiNzhaIcnrLuQDfWr3LPTpyOcVFTuOc6RaTGJs8zM886r4pAxwzYKatPnnoUcm+iPW8yS2r4ir+v2+xxFsMB6rBcecqwisAcxIIIvaDkWtE4GQVWd5xGHlbhsiRojPfJYh9ZYYOngkgElA3BE0BZrLDHHAitCxMtgLVmHAAussXAly04mce87cOmAzV1dh6+Va+OyM3GqJlcSrmasvi1WgZ4kswbMCT62ru0HF97qMN5sMrP6dFX6HEXIDRz5VhOQYMONyyM5x8mw9Y4usOD8hHhOe2TYumNWWPWW3MhbHkS47UyqgmITeWeqLLX1eARY+KSGeVtDCvyM0APDk+P4jgyZ5GKsaAwCa6lvMDL3T5J7PINVHgbPI5gaNfL2q3VDUMUmCkEhHX43ZWIcop+ABwij+1q2PCLI7ZClkiEs6V0Z56VtvlwDn2G9DEk4l6PsjH/zeKxIU22iRthBZcJ8Y7AarkGIgzjiF6zOHoFJCKLsfG/IoojrYgyptq/FrCTTCB0JROsiupSYTJjOvO7Na13eUgrd60eUtbjJvGRqnCc9NBUnaYSklHK2BaCVIXSRl6yD2AFdhwyV4xWOLAZ6RgWRov0hFb5XpHfaKCQTNk6D+l7L0+RELlZIXH+L/hZpCECsEcIiwwwLvrZMITsCdyboxLIV2YP6KmnftoPeQY5NOIGChwQ+bRQ1CSQJGyWRzi6H3sFR8wzIQqZ+NE8WqT8RgbpntEbYIHigZRtHWgL0kwGuWuEn4e/U5GCF7feHZBAnpMzgwo6RoHDV6ybtWpSX4Gy452T1HOmDnABycdbYM1IjdLqfr1Fkgcwi9DPBNQ/DD5akwYykNoIV+yDgoax3vcYaJnlERNUhFEHPWQ8EpiOvz4Fa5CSwFGeNPSM1Qsd9vAH3go2JDSceguR6F61TaMdjulEls5qSlx7OycL1KaJ8uT+DEoBxcpFk85hXgD3It+38c4SfIweuLIAM95jRCEyjA4W8B4LbhO/Y+65+L4Ton25MKyk6GeQ2Lo/pU8KW2dso9CUWFLoUZHvGc+AohbHYkA+fReB5H0Mbt+LZUvFPgjJdc+Z4jTACxVtxirfTvJJyAaYWSyEboYpPHZ4g9/RUEnFPjn0ZzEeFvXQZM2AjDPQwCsrXCIVE1SqmYzXCeQwKe1XsYbCJpdjPSVqDUnEp3/CkrwtBexS2y9bKOkC2ntIjrIGVC46O9DxhevSZtfs7Vhg/hpm5d8z2ixSgsSxi9n8VraFiUXZAf5pzhNb/ZOYM9jfF8bCDiO3FmyeK5TVIYu4kzfwa4mXGwZgh5zIROEWYVw1Z43sgMoOJoiQNlizioDzAsrguLmgDHNRTlaRjY1sRO2TWX6XV4JlogsqEdGHiKcTiZUYT1mO8W2gG4EfiTJPMUc3JvZ6j6tHEfI1V/e4myzOYJfv2LBsbM8PGlfzWfx7TWCzJh5109D3PkuBSTESEJve6Lj+ceqfMH0sPyINHPOng/pABC5RMJ19ZyVTPknwwx1f2LoiZa3J8xcHl7O96SIXhNcgnrCjmjowT+hqhfCY33nOjPSnqXcggxDRCnecaLauZJinhjFJJ/l3/z2buMYheEjE5Zvjc8qc9PglOby/Yuzw0tGi6yohwjK9xDkidAEyGF6XHRXJ0K3bMfi+32bGj6iLFhIklja8x54QcP9xat6M9MY1bQoYscIHPMA9EQNzvFRZfqrjExkekXHLFV6PEV5Ae+VpAeaDIWzApTiCPWNAklGSGCrmN0L8vZsyp5MNTYa2wpvLdX7k1VWAjrCFamBj/8i+Nr7GFlEN9gT7yQnqcv6kWNKfVCP0dEsJDjebiyx12eMYv3Y0zJveWRhtxYeHoSMTxGF/jhv1LVOVmk289nJMgqJt0GmE6+aaUpMSkVGZoL8mbryjRjcc9gBeNsuGlj/yDIgabdLoKmKrvcabwM8NStlfSbKHppAoTjJqtqsDlVsKSSYKVvVpxbdw+y+rzxkapzkjHpfNoDkZU5DV6XCOJE2riEcquzjY5ckAdeSFdpKbzQcoZRMYKbxG0F9fGxTGvj3PK6YOKJNfg+RpHufHgtt0YjVCRGkvUSlnqEhohDegkM1YkGoMC9lleH9fXCkyaArGHfokLi0dneO/41PEIAZgMc0AbDWCURpiy9wuAxRST7hwE7nMTJY77YePI1GPjL4ym1wgFRHiOCNWNtepsfHAgKEVfShDG4PxK3lK+KGAljeUFJo9mds/eNaqEfHyUyqV68SBQX7M0lXqEjZB6iChOOrJX6UEBgkNxXb6NkC0IvcMN0y9L+MJHbE+V2ghrDB7lOotG2HBAlXFGOdN4StQIE4UxPXQgxx8XxjtvQfjCcyhwoG85cBKNcFgcn1wjdPqgemV8ERsh3SILCmMzM/1HDuQbdlwYe1tsXp+nJ0LuuDChRmjy1mqgZMcqG6GIbTdCVWHjc+XSt92YEEsWj6HQF7PQL+RFfMKcvZaCPKMjXHjwuZXQiktW/bhy2JzXGD5ZfdI7SzpngvXC+Pw2QnqWJLz51Thj9XEkIbfyYnuHl237nrcpEhP4UnkjsBHOjth4pQAFTKwRGot/GqgJnnjntxFSYRyeNh8QwtE+8n9fomf4dpFjp6eO/L/reetLw6PzCBxOIL1SgIqBS08rR+Qa7w4Ankao2xtNIl9vIz9wfNbMYBEyYL9AmVyQ+WOKuaLSKWS19ZA6t8afWHvyJsfy8ETvTtdeuX5SjfAYAzChbLpGyPwGxeWol0XQrOPw5elN8SB0QsxHPfNYbxKCdva3ne2Ui41Z7NXXCBu9fBnMzbJW/FN6Jz3YRzejlACNSTFXanjkK0crPVUXtErGIJI6JaEzKGn1HhkgL+qQnS2UdbjtbDEmdfOldthQ9KAGI3mgDyyjH+NFcYJCgWabUJ6+KoIQM/JNXKsGczSIDXA60lvBhGFr0t7eEW/mRGO1gxEMb0Qmnwi+56MeoBrqO9kHbOF9GsHuCeRuEMeE2Zt+ECt5z4NyhGCbUcWHqdPf4YgvLEzTQO7kgJ0thENg37znVzGm29iQx2cdyEO+94E7kUbItKuEMEkX0AjpUAe4metVhGQ6fR6K6DdYk1diq8sfGeXIOLDpNyhzAmFAvWnHZUYfOO+TnlwCKKaNTBLwIzTCxF1jNhR55Pdobwhp2d56Km3PCGwVPpE5YVv2XqTRZUYD6sshzi356BNhCcJVpcOVTDAdiPNAHIekyxHYq0YjTArqU4Mt0rII3L6hPOpuPaRFpqhcX+2OlRijrTzZ9gvxUEzw3tav+sMp+1GFYuBCYV7T114zdnPI4Um6UkJzPqOXlFSqACFfvi23kBBNW3ekxe19A82jEqzk1hMryK+6PEISvr3lqmuPfvjFHt79C38506h1W9UWd3jgkQVdmpkFdhgyvR7hWLxBjgzxO47TLlK8xDlC4EvnTHUXCswCawBPg44M753R1pqNH0HR5Nh0XNL/o9tDqh/bWwctCvMQ314zFh/wxdX0jPcSM3/9zTy2vd94ZwyPOGg9mesn89SOExkvs0IG4AtpYXABcq5HMGcDc46GWNNohIIwZaJ6WwEDG7OwBSEc+cOG3MRiiRa1ScTLcRyD95bAYj6URwS9oJKgc2nPnNQWuDHKqQBMqGOCgOipT6J4J5NGJHzaklTPVa/LO0Jv7a7Pat7kC5yjcapyV5Utif5UjLFAdIRsjdJdUNZcIbZh138l1EJsEht3gdi6rbHwlJTuVUDNFXCFaxkbM1yMExap99wRfqabzV0VW314rEYwyrX65rkAjANpJN9hR6BXPT8XWKbfL8guEjs+pcA0deyl9XKN7/b5HyxQIolrONFRpJvdYbFEgQo1KmxTT/Bhjk0LpcTav3tvFH5yrLBt4RfYYoPVRFZeiwW2KFvYq36Jggwr15ISm3Ab/geObUycbAWa8wAAACJ0RVh0Y29tbWVudABSZW5kZXJlZCBieSBRdWlja0xhVGVYLmNvbSBJ0LYAAAAldEVYdGRhdGU6Y3JlYXRlADIwMjUtMDItMjJUMTk6MTE6MDYrMDk6MDBKMwe3AAAAJXRFWHRkYXRlOm1vZGlmeQAyMDI1LTAyLTIyVDE5OjExOjA2KzA5OjAwO26/CwAAAABJRU5ErkJggg==;" vertex="1" parent="1">
                    <mxGeometry x="-963.83" y="432.25" width="124.01" height="28.5" as="geometry"/>
                </mxCell>
                <mxCell id="78" value="" style="shape=image;verticalLabelPosition=bottom;labelBackgroundColor=default;verticalAlign=top;aspect=fixed;imageAspect=0;image=data:image/png,iVBORw0KGgoAAAANSUhEUgAAAjYAAABeCAQAAACah5agAAAABGdBTUEAALGPC/xhBQAAACBjSFJNAAB6JgAAgIQAAPoAAACA6AAAdTAAAOpgAAA6mAAAF3CculE8AAAAAmJLR0QA/4ePzL8AAAAJcEhZcwAADsQAAA7EAZUrDhsAAAAHdElNRQfpAhYTDAUwkh1jAAAWfklEQVR42u1d7ZXbOLK9eGcD4HgjWDoD2RPByhnQngzkDOTjCHw0GdAbgS1noH4RzKozkDJ4JjPg+0GIQuGzAEJUa4zLH92kCIBAFQtVFyAgBoQgVvhfVPKkB/BT+Tv+B/n7K8t/QI9/D8/BYgr+RhAr7FEHb3sa3iXlvkELwNTGHhWuunfVwY/D13u3SAHwD8Y9nyezMQqvYqRRUeEtirH5tfCZYWqAtdgNnxJyv6SpwNPGN/dujgIA+B/GPT9nl/J072oWLAyuzmyScu8j7z/csykKLhDhMAoQK7wCAFR4hdeo0ThvfcIz/g89fkqF+AmUEOpXhKIzQI3XqLG23pgU4ogVXqHC71g5cgXOeMZf6HHGeTjfuzUKAKaxMRLVOFkul8i4wANxxMpy+Ty8npVrhZ3mH/X4ii9Df+/6FuhIMjbWZO+HH/euTMFLhlPV3sz1fUWrmJsnvC+G5mWCw9kYEGYP1RdTU+CD1JmzZajg8+zMd9N/P4Z3xdS8VCQZG0uc/P3eFSl44Rh15gnm6FMjqnlZT5xMP7y/dzUL3EgzNubsiP29K1LwwjHqzGF4gknXzvdtRqQMoxcshjSC2Eg0iHtXpOBlQ+rMb0M/Tcm7oh9+m5V3he6S+73rWeBGgmdjYWzK4HaBFxfGZugBy5hlJZrIDCneAgCeiql52UgJo0zGpkzaK/DjwtiM+NP4fV4gNYZoJZR/4UgxNiZjU2ZoFvghGRt51hq/r8QqIjcd1JQVvFAkcDaFsSmIxZWxkecHwz/+OnxMzHtkbGbyPgW3R7RnUxibgliojI3EzrhpkzwALhmbe9eyIIT4MKowNgWxMMIc6wB42keZeohW8GIRb2wKY1MQC5s5MHmbVJK4MDYPgmjOpjA2BbHQGRtAmRuj4t0QbTIKY/M4iPRsCmNTEAsLYwNg6GHOt0mZAVwYm4dBbBhVGJuCWLjCHDOQWgvO+n4UhbF5GMQam8LYFMTCYQ6GZ4tXHO/bFMbmYRDJ2RTGpiAWNsZG/tKYs37j9KkwNo+EKM+mMDYFsbAzNiOGH+ZqwiJuALwwNg+EuDCqMDYFsfCHOV+MK3GBVGFsHghxxqYwNgWx8JsDc0SqFmvwMX4tXrq8h0AUZ/OSGBtRY413GFfZ73HGE9o8q+iLNT5ihRrAGU/Yx8/9yFTDCh/wBjVeoUaFHj/xjAOe+LUUFT5jjRoVznjGwbcgvajR4B1q1AB6/BcHfM2xZIObsZG/7429Othb1y3B2IgKa/yONapJ037iGd/i1k1eRhIxpUx1e4e3U91GDfseLs1olZ8444AfAd0c2AdWxqUjP3XOAw2O1h9aVDNzri05H1FH5rLCHkfsY9Mp6XeOGg4YuPlijU671GHjuPNgzWI3W1KjzpyitGrgShHN2B55tUvJf+ORQocd+zkXkQS/FG9JQQ3DCnvnjwesPSkjmn6b0gTZFaDBiVRuiwZb7GVDd9dmQo0WJxzRRNfwkutFeB1Wie0UbW6w1hT8gB02aLDBTqn5JpjPRv7TYoOtkrLV7qsm1emmsrbTtdM88y3bovXeY77QTL1Cy2uLhOeusCMXjlPLtOSV3jLyWkQS3FIGDMBKafMDWmylfgVrhloxNEe0Fs30SC9GAKYlXPNTZ1GBmjyD1rNI9ZDmBuvY55QvxvFqWJRet2P3YrSnZiijkpYamqP5GqGZFGLLeIqTYnqvOSu5opb5GWWhlgo0y3uV8vKa++k1uR4dM/fxCRP9R+8TdddnwVaXPfEhjgEjsIgkLKW4jVp71S+jZq1yYmiY9CStXh1J6fA1Y0RgXMot5ED5jXJysqmYvOM0YACx0i0j99HUHLSrV5Fxe1vaI7J9P1TEkJ7cL+h0n8fbwgmagSStJ40vVrKVTPVWn4XtGTp1pgrc1RmXGN4KKgxgGyb2E9NA2qk5Sgt13qBjEUlIPXWVcu0+K1m7ztUBk/LIPfINcYZmfkOlaANDCHdmbMhLfHDeNTbIVustg1G9rJ2Rr6p4zOekQQHzRdXibX/YUcl7nUyIbIVGS3U9OckyB1jMthH7J3MiYcbGIlu2bt2CsSEhcCB4ViTt9HuXkYTU9o2zFNmak/fk6QJJRKBIToZPHj8ONTm13JcmhiH0yLkPjpNGVIC+8sFgxux/lOuXgxeM0dOKlYa2bZiPufRajpcBHSyvODlZSdUweuXJlFlVLlJqDMZmgKGm3roZOpGRsSHEZ5CtIt2vwzguIwmcgqXUSn6BFiOlSjMp/Z3AG09JDsvvbEHckbEhpibQ5xHLPAk0kGanNqyz4TlkIC2d9ZpqLRtj0uzOamOvDTlppRk1WibNy/DWjOHdWbQr7I1mZmzIM7DqTIyT7eVaRBJS5zbeUrZTewX1i9TqMGB6/8JdtvrEFt3ni6LTL+USclQVGEQt8UYYTyodzoPzF486BRSEwxXR14zZT8s6WvPHEVYmw3Jr40hND0YtvDoTlJiji/Cmy8vYTFzGeDDH4DRqwUizjCRGDQqUspcmhNGV0fdtCtI42k/Ji8r7ROxmHbAYY6O9vpxeUu8RDoH7R7tt8X4IycZr7kjGRpuxwH6tpbGx9P7SKW8d19Vj78lZPSKG/S06wwzCLOX6x9syMjaoSOkd31siXbCmH8tIQhrdPaMUZlemBfUR7ay9L4Zh4zbqnRgbrcc7sNLohtGvtKOw7A4qNQWcERJ6WgXubslphPl2y0BKyhR0o11w+ARGQJPu1zAZG3l35AB4TsZGq3PE6BtNeQ9JyHYLl8I2zJbwjdth0DL94SNbHNbq5T8Miow3c7bSLvjHFCzjBY7GCZYex9gYBpztQUy9lkUGo29lud5qF5pA3uMxw3PgMzbW1g6kzcfYxIe+zrR0qHgRSTiDKN1ksGl+y/xgpmaGBjq4D9Dpl+YLObrazAlyugMZuPsER9+i2WmGsLTG9g9g625uhJJfFMnyi8OpNgK8g/fJDujQ4TBnhk0MYyPvb41LTl8vH2OjSTkyR80fU2S4lCRceRiMD9s5MFLyg/sA5cHL5C6MjeEIVknpvKGXrJk9ZqamjsPYRLjjhq/IrJ3iudkmoo91twQX2mkiDxMhvSjGZoCDZXB4LrkYG6PMyLDM3SEtIwlZyjZYSkRLaY5FhPkNjavyMrkDY2MEQ3z7SntIP2OzszeLpXyGw66dVkElSaidIlJL/rLuxrOmDMnPlF8UY6PVLNguuRgbrReP9pR0pmlpSbgGNwz3gE9563of8cGNZqYq43dWJmYUd3PGxog5+YzGiZ/OFVcbasSZ0UoF7FUjIyzlRsXXj/XsXw07gsI5vESi/MbnjArELKSmw2TnYWyM8qK+ZBtg6Yanp11GEs7BdfpcMX6NNgkhIiU1U7whf8tNnX5pXhNFP3gMvaWlZNTMPVvlenBGotiMjaGizKBUmb7u6vFPsI9RJX1EMUuC45NWSanUwxYiZGJsjMHlyKf1dYnLSMKlv2mztyw1ijFTtHu28UiMTMxY+uaMjSFE/geNEYzNANSOcagoktkqYN9ISqdd4MxNVlcRcX/EX9l9JO20urn85BT86HRmwG6biZqFsTEG2xPyM3z+yeNfRhJO/U0uJb6TdbRFmEdiCWUJxqbTLvCDqAjGxpNLgn3nCtgSLHjDAazI+iRdfG94B8Zm1JnoIMHwaAfYiMYsjI2hYwlehuEbBeiFZSQRE9AbaelpRKCqtafljf0HY7XBm608LCr7AoRii4pc6CMWYfxAzn4kPhpdqrINJ9B2njh7llb8qJ2f6WKKYlxqsUaN13gLmu+fQ8qukVSCSyxzmrgQ+dCLH8YyoZ+MJ86wV5ShY2n56Zvq/WS1y5wSOaCrOEeUoq3/3EcsQVvT9rS+sQk9QCbGBnv4aE714I9E0fAnMarXegZWLhGMTcojdWjTSflHYWwsbT8epH/Nw9gYOsaana7lYRIMAU9gGUnMmBGdTiwzUgY9G91iIdNeUaJGA+C15ZeV0V/sOTkCmGHTCf4gZ19ZaWif5ezTo/YOOOOMZ/yF55lLuVPv6OaejdSZPmXB9OFZPEPfn+wj2eAlh18zR8f0J1GfPiSnZSSR/hYwtTgtZTiMutVeUaP6fLP88od+IWJ/g/TGUkE3SvvGSsMVsBmUvidnPYCfMQ5sCJp5O+fYM4HVFql68sV48TfE2OTYK8rQMXxPyOWNdt77b19GEhEBvYl0M8VIGTY2t2JsPgA4WyM73bzFeFIZPBuxIr4ciy/SBOzr0/Ue9Tyk8kpcPAxjM2L4IXrNm67ERtmWJMfu3rqOpb34ei7/ZbXLBS/OrzG0mM/YUJ7tbE8Z3qTOdBUzNJJoUMFFvOpONLs8LeRL9Q5or8fr8dbsNMm1SwZ9tiW2FZxrDszAdfJsRDXup5Q1sEx6VvkkKkJtu4wk0r379K6avjOu7jOaAssyx0ZSWJXlF5Mg5H83HJxWxMqFUoe8lfP4c2z0CzfYiMRbYnXz8hLn2Cg52AbA5VBqjjk2Fh1LkIJlSkiIHl5EEumlzJgKaJWVfoQ8m5swNqLGGsCT1XV9O6PEDIyNqGl/xfTjaDvFBH439mwejrEBMPSWvvGz/JuDsZmjY1e8184D3tYDMDa0XUJB4bVMPYhy6H/I2NyGsRmdYnsQpY9PxYxp5BiLSsiDH+uKSr+Sjwh2gEowy0giq8R5emLqRiPbLgdjY4yBJklB74hDo5bLSCKdsanjuUoJXhAV79nMZ2xENY72OIhRPQ5OZWwQtxvzBKoSvAFRvoBfaee3NjWPyNgAGJ4sLfM5G2NTaecpjE1jXApN/Xwsxobt10CfAuscvfUamxvNsRkHll32Ty/xL3a+eebYpDQ5X8D6DNPbG5t7zbGZW7OdcWWDPH6NafJTtFr3+Z9+1Tk23CAq5NncgLERlVQjVz+gK0JGxkasQlPqRJXkHbEFbISENzY26YOZychjDjCYQUklmiwhmolTQpoP2vlH/+3LSOIuc2xoza1OhFiLVcjY3IKxGU1Nzw7H+EIJNJaocMTB4v6qoBQZy9TMUqMUNY9BHm8vBvnMgWluPmcyZbP9Szl1Q3nWoNSXkUTyQEUqCSEqrUyLEyHWOOAo6kjPZi5jI2oZRLnJNE0RuLaZ0VhjbfxKQRmjlJGoUJrec5YfeWZUxyCTZwNbILXKwtiYJj4+v8/aefjz2GUksfwcGzrb3v5hzXsAGM4eY3MTxuZCuLrJtLPnzIdwY70Dghab1pjnd8QJOIZ4m4+FPZtsjA2A4ex43vm16LXz0Lfaei1XGv/yidEl3sOzWeKrKBpE2d/rDwCe/WFUdsZGtFJIZ48y9uSMr7ThxpJV9uKfCaXHCZg+WcWunwXiILwjII/L2EjsrFfnewVzDT59rvPwZyjBXRibuFKSzJTxQatl7rxYowLwzW9sMjM2oplcLt8rwh99oqBcjMnY1Jcqe1GRM0aPFy1g+mT/RDLEHmtszJk7Ch6ZsQEwPFnDzPnk87OWbx2TWqy0dn3HSPTC/Rrte0D+tBE6w8Y+TXf0fb7GejYzegSxUuas+KY/pX08SSNHW2M1rNx7z5kdkQLWnixKzUmNWzRwifcC+hqkmvEY8FqZjy/GlTxeAX3CV1Fp/0PO3rGeZxlJLM/YcBaZu+pp4AsX9ZjxVRRZDjG0LrD6bRJrSUPjWxfLk7rWodfuoksAcbZvoV9ScRZGVxcuTVwYUubR+b984X2xku+Q3y1l2DpuytH8SirLzhDa0qzpC4JzN05cRBLaacySnvSrKPZiuvTUeoeyCbE7m4wrD4f2APaIk6G4xia9tm3WR6UNKqr2pEGlMFqJY56oGa8S2nNsoS6wTU3CeoPzDrnkdeIHsI48mZvVRuerdhLszzq1NYS5u2cvIok5pWin/I2Fgq2BDlOX6s4o215R+k4JkVUI77B9NC4ZRsW1yXug7NDy1br3xxQw6UeivzeeJBNQCc1Ly2oCrOWtblGS4bVWmfJVuwmu3GrSrfFN1CKSmLGkp9bG7HRU/227f47vvuwg3BkZlxJF2mmXGI1ADF3ApZMvLjVohg/m3tHbuPMYUbZu5rg9nSqkqOAUteyRTwwjnOgapx2oJl8hc89NWjnjfgTEt2H4S5qpifDzl5HEjAUiEpdm0brmleP3ScN5xZMk7EdZG4tKD2D5R6QS3nKlIu60ptYUwb0jcqDm/l0tzc1i2QImpfDX67n0XQdO/66dztw9MlBWHfvqRuSthrYZ9/IkJj9oxDRTE+WPLiOJ9FLCOz45U3a+EmW+03V7FmvLzoRxW3i2lhwG8B1W9WV0hAuTgreyzOtPmkrK+ypm2SdG2ZUleEul5DqW6WimFuUZzSz7TDBLao2LWZcEU3TpTmaMBl1xhMIykphTSnjHJ2dK1Uxp2i/bTNHW8TFXWGONNRps0FpfowEdNlhjjZXluKTdYW/1Zq4Hf2fLazWsvc4k/ilH5fUlKWSIxWfY1Qj26LhjrCX1bSLVSH1en7lBhc3UqkeuQdN805m7R1paYI0Nttg7OpUBHfbYosF6fk+uBMnV3Lw8reTQTdREzm30lsI3lcT8UmaZKTXtyvI8JCQzN7q97ZHm3GmvGNaTQVR6OoU1UHpWGXrEMSNkoJ4ql9KPb9L3RTZqeLL12ajQhO5x5k29jbyeRqzOzAx+prD6BjtIEi/+YPTO1Gs7pQxa31ISOUrRRmAjtVgp99rtV/Kqxv4g4InkPSJ5H8Kvj/3kVgnQjhbVuCpOiw220iidonsjGkjusZGe28XInbCasy+yIuhrOSe02KKx+oiH2LFA4uCyArWIvGN1ZjbTImuTkbEhWqO21RE7Ke2WzvhKNRO3lESOUjSfKNqcKn5fiwbb6UkMohmWePtWR2SsKxXhYP3B2ctbel0WnWrNqXPUQ6qddj0xXHCWMx5HbFNyJv1V5p0Xpzbu0OGEE4444iCPI4444YQOnaxXN38Sm+TnbjYtESuHnl00KHk30ttKIkcpZDgmyZxb3jnrjvQ3qnrWZqywwQEndBjQ4YhdYDJbjR2O42Qi7OeoyQA0U14DTjioZefcJB4r7HCQJXU44oA9djOffWR6jvNy+ZUONGhxkP5MJ+WdofWWkUR6KZKWOM6YtlthO2nvwcWPiuFGn2n8/SFaspbHn0N4TZOCgl8YxdgkQ3TkS9k3iQusFxT8IgjviFlghfZR/rmYmoICP4qxSQVzr5yCgoIRJYxSIGpU7IWeaRD12wI7TRYUPDSKZyMhtmLACUcxiB3j7g0xNZw1aAsKfnEUzwZykxd1zbxPoVVlxUm5vx9+u3cNCgpePopnAwB7bXnOP/y3i4bc/wUFBQVBFM8GYoWjfm0Q3hSqX/M8vLl3DQoKHgHFs7H5Mb3vdrElfs37ez9+QcFjoBgb2w4H3903i5rsGvR+gb2YCgr+FijGxtworvduprpX/v86lPk1BQVMFGNj7hX1xj2QLfbKxqs/ho8oKChgohib6ya7Pc74in+5AyOxUzbl+jEUtqagIAJlNOoyGhU0HmKj7PhXTE1BQSSKZ4PhGWcAjVj77hKtYmo+FVNTUBCL4tlAmWnjWCZC1LhyNT3+Xb7wLiiIR/FsAAzPGKneo9iJiv4marHHaTI1X/GvYmoKClJQPBsJhZF5xhP+AvAKr7FWR5/wqcyqKShIRTE2E0QNdbRJRY/vaItHU1AwB8XYEIgaDX7HCq9QoccZZ5zxrZiZgoL5+H+kW57W7x4IeAAAACJ0RVh0Y29tbWVudABSZW5kZXJlZCBieSBRdWlja0xhVGVYLmNvbSBJ0LYAAAAldEVYdGRhdGU6Y3JlYXRlADIwMjUtMDItMjJUMTk6MTI6MDUrMDk6MDCQ7KYpAAAAJXRFWHRkYXRlOm1vZGlmeQAyMDI1LTAyLTIyVDE5OjEyOjA1KzA5OjAw4bEelQAAAABJRU5ErkJggg==;" vertex="1" parent="1">
                    <mxGeometry x="1013.58" y="370.5" width="234.83" height="39" as="geometry"/>
                </mxCell>
                <mxCell id="79" value="" style="shape=step;perimeter=stepPerimeter;whiteSpace=wrap;html=1;fixedSize=1;" vertex="1" parent="1">
                    <mxGeometry x="2030" y="329.5" width="270" height="121" as="geometry"/>
                </mxCell>
                <mxCell id="80" value="" style="shape=image;verticalLabelPosition=bottom;labelBackgroundColor=default;verticalAlign=top;aspect=fixed;imageAspect=0;image=data:image/png,iVBORw0KGgoAAAANSUhEUgAAAjYAAABeCAQAAACah5agAAAABGdBTUEAALGPC/xhBQAAACBjSFJNAAB6JgAAgIQAAPoAAACA6AAAdTAAAOpgAAA6mAAAF3CculE8AAAAAmJLR0QA/4ePzL8AAAAJcEhZcwAADsQAAA7EAZUrDhsAAAAHdElNRQfpAhYTDAUwkh1jAAAWfklEQVR42u1d7ZXbOLK9eGcD4HgjWDoD2RPByhnQngzkDOTjCHw0GdAbgS1noH4RzKozkDJ4JjPg+0GIQuGzAEJUa4zLH92kCIBAFQtVFyAgBoQgVvhfVPKkB/BT+Tv+B/n7K8t/QI9/D8/BYgr+RhAr7FEHb3sa3iXlvkELwNTGHhWuunfVwY/D13u3SAHwD8Y9nyezMQqvYqRRUeEtirH5tfCZYWqAtdgNnxJyv6SpwNPGN/dujgIA+B/GPT9nl/J072oWLAyuzmyScu8j7z/csykKLhDhMAoQK7wCAFR4hdeo0ThvfcIz/g89fkqF+AmUEOpXhKIzQI3XqLG23pgU4ogVXqHC71g5cgXOeMZf6HHGeTjfuzUKAKaxMRLVOFkul8i4wANxxMpy+Ty8npVrhZ3mH/X4ii9Df+/6FuhIMjbWZO+HH/euTMFLhlPV3sz1fUWrmJsnvC+G5mWCw9kYEGYP1RdTU+CD1JmzZajg8+zMd9N/P4Z3xdS8VCQZG0uc/P3eFSl44Rh15gnm6FMjqnlZT5xMP7y/dzUL3EgzNubsiP29K1LwwjHqzGF4gknXzvdtRqQMoxcshjSC2Eg0iHtXpOBlQ+rMb0M/Tcm7oh9+m5V3he6S+73rWeBGgmdjYWzK4HaBFxfGZugBy5hlJZrIDCneAgCeiql52UgJo0zGpkzaK/DjwtiM+NP4fV4gNYZoJZR/4UgxNiZjU2ZoFvghGRt51hq/r8QqIjcd1JQVvFAkcDaFsSmIxZWxkecHwz/+OnxMzHtkbGbyPgW3R7RnUxibgliojI3EzrhpkzwALhmbe9eyIIT4MKowNgWxMMIc6wB42keZeohW8GIRb2wKY1MQC5s5MHmbVJK4MDYPgmjOpjA2BbHQGRtAmRuj4t0QbTIKY/M4iPRsCmNTEAsLYwNg6GHOt0mZAVwYm4dBbBhVGJuCWLjCHDOQWgvO+n4UhbF5GMQam8LYFMTCYQ6GZ4tXHO/bFMbmYRDJ2RTGpiAWNsZG/tKYs37j9KkwNo+EKM+mMDYFsbAzNiOGH+ZqwiJuALwwNg+EuDCqMDYFsfCHOV+MK3GBVGFsHghxxqYwNgWx8JsDc0SqFmvwMX4tXrq8h0AUZ/OSGBtRY413GFfZ73HGE9o8q+iLNT5ihRrAGU/Yx8/9yFTDCh/wBjVeoUaFHj/xjAOe+LUUFT5jjRoVznjGwbcgvajR4B1q1AB6/BcHfM2xZIObsZG/7429Othb1y3B2IgKa/yONapJ037iGd/i1k1eRhIxpUx1e4e3U91GDfseLs1olZ8444AfAd0c2AdWxqUjP3XOAw2O1h9aVDNzri05H1FH5rLCHkfsY9Mp6XeOGg4YuPlijU671GHjuPNgzWI3W1KjzpyitGrgShHN2B55tUvJf+ORQocd+zkXkQS/FG9JQQ3DCnvnjwesPSkjmn6b0gTZFaDBiVRuiwZb7GVDd9dmQo0WJxzRRNfwkutFeB1Wie0UbW6w1hT8gB02aLDBTqn5JpjPRv7TYoOtkrLV7qsm1emmsrbTtdM88y3bovXeY77QTL1Cy2uLhOeusCMXjlPLtOSV3jLyWkQS3FIGDMBKafMDWmylfgVrhloxNEe0Fs30SC9GAKYlXPNTZ1GBmjyD1rNI9ZDmBuvY55QvxvFqWJRet2P3YrSnZiijkpYamqP5GqGZFGLLeIqTYnqvOSu5opb5GWWhlgo0y3uV8vKa++k1uR4dM/fxCRP9R+8TdddnwVaXPfEhjgEjsIgkLKW4jVp71S+jZq1yYmiY9CStXh1J6fA1Y0RgXMot5ED5jXJysqmYvOM0YACx0i0j99HUHLSrV5Fxe1vaI7J9P1TEkJ7cL+h0n8fbwgmagSStJ40vVrKVTPVWn4XtGTp1pgrc1RmXGN4KKgxgGyb2E9NA2qk5Sgt13qBjEUlIPXWVcu0+K1m7ztUBk/LIPfINcYZmfkOlaANDCHdmbMhLfHDeNTbIVustg1G9rJ2Rr6p4zOekQQHzRdXibX/YUcl7nUyIbIVGS3U9OckyB1jMthH7J3MiYcbGIlu2bt2CsSEhcCB4ViTt9HuXkYTU9o2zFNmak/fk6QJJRKBIToZPHj8ONTm13JcmhiH0yLkPjpNGVIC+8sFgxux/lOuXgxeM0dOKlYa2bZiPufRajpcBHSyvODlZSdUweuXJlFlVLlJqDMZmgKGm3roZOpGRsSHEZ5CtIt2vwzguIwmcgqXUSn6BFiOlSjMp/Z3AG09JDsvvbEHckbEhpibQ5xHLPAk0kGanNqyz4TlkIC2d9ZpqLRtj0uzOamOvDTlppRk1WibNy/DWjOHdWbQr7I1mZmzIM7DqTIyT7eVaRBJS5zbeUrZTewX1i9TqMGB6/8JdtvrEFt3ni6LTL+USclQVGEQt8UYYTyodzoPzF486BRSEwxXR14zZT8s6WvPHEVYmw3Jr40hND0YtvDoTlJiji/Cmy8vYTFzGeDDH4DRqwUizjCRGDQqUspcmhNGV0fdtCtI42k/Ji8r7ROxmHbAYY6O9vpxeUu8RDoH7R7tt8X4IycZr7kjGRpuxwH6tpbGx9P7SKW8d19Vj78lZPSKG/S06wwzCLOX6x9syMjaoSOkd31siXbCmH8tIQhrdPaMUZlemBfUR7ay9L4Zh4zbqnRgbrcc7sNLohtGvtKOw7A4qNQWcERJ6WgXubslphPl2y0BKyhR0o11w+ARGQJPu1zAZG3l35AB4TsZGq3PE6BtNeQ9JyHYLl8I2zJbwjdth0DL94SNbHNbq5T8Miow3c7bSLvjHFCzjBY7GCZYex9gYBpztQUy9lkUGo29lud5qF5pA3uMxw3PgMzbW1g6kzcfYxIe+zrR0qHgRSTiDKN1ksGl+y/xgpmaGBjq4D9Dpl+YLObrazAlyugMZuPsER9+i2WmGsLTG9g9g625uhJJfFMnyi8OpNgK8g/fJDujQ4TBnhk0MYyPvb41LTl8vH2OjSTkyR80fU2S4lCRceRiMD9s5MFLyg/sA5cHL5C6MjeEIVknpvKGXrJk9ZqamjsPYRLjjhq/IrJ3iudkmoo91twQX2mkiDxMhvSjGZoCDZXB4LrkYG6PMyLDM3SEtIwlZyjZYSkRLaY5FhPkNjavyMrkDY2MEQ3z7SntIP2OzszeLpXyGw66dVkElSaidIlJL/rLuxrOmDMnPlF8UY6PVLNguuRgbrReP9pR0pmlpSbgGNwz3gE9563of8cGNZqYq43dWJmYUd3PGxog5+YzGiZ/OFVcbasSZ0UoF7FUjIyzlRsXXj/XsXw07gsI5vESi/MbnjArELKSmw2TnYWyM8qK+ZBtg6Yanp11GEs7BdfpcMX6NNgkhIiU1U7whf8tNnX5pXhNFP3gMvaWlZNTMPVvlenBGotiMjaGizKBUmb7u6vFPsI9RJX1EMUuC45NWSanUwxYiZGJsjMHlyKf1dYnLSMKlv2mztyw1ijFTtHu28UiMTMxY+uaMjSFE/geNEYzNANSOcagoktkqYN9ISqdd4MxNVlcRcX/EX9l9JO20urn85BT86HRmwG6biZqFsTEG2xPyM3z+yeNfRhJO/U0uJb6TdbRFmEdiCWUJxqbTLvCDqAjGxpNLgn3nCtgSLHjDAazI+iRdfG94B8Zm1JnoIMHwaAfYiMYsjI2hYwlehuEbBeiFZSQRE9AbaelpRKCqtafljf0HY7XBm608LCr7AoRii4pc6CMWYfxAzn4kPhpdqrINJ9B2njh7llb8qJ2f6WKKYlxqsUaN13gLmu+fQ8qukVSCSyxzmrgQ+dCLH8YyoZ+MJ86wV5ShY2n56Zvq/WS1y5wSOaCrOEeUoq3/3EcsQVvT9rS+sQk9QCbGBnv4aE714I9E0fAnMarXegZWLhGMTcojdWjTSflHYWwsbT8epH/Nw9gYOsaana7lYRIMAU9gGUnMmBGdTiwzUgY9G91iIdNeUaJGA+C15ZeV0V/sOTkCmGHTCf4gZ19ZaWif5ezTo/YOOOOMZ/yF55lLuVPv6OaejdSZPmXB9OFZPEPfn+wj2eAlh18zR8f0J1GfPiSnZSSR/hYwtTgtZTiMutVeUaP6fLP88od+IWJ/g/TGUkE3SvvGSsMVsBmUvidnPYCfMQ5sCJp5O+fYM4HVFql68sV48TfE2OTYK8rQMXxPyOWNdt77b19GEhEBvYl0M8VIGTY2t2JsPgA4WyM73bzFeFIZPBuxIr4ciy/SBOzr0/Ue9Tyk8kpcPAxjM2L4IXrNm67ERtmWJMfu3rqOpb34ei7/ZbXLBS/OrzG0mM/YUJ7tbE8Z3qTOdBUzNJJoUMFFvOpONLs8LeRL9Q5or8fr8dbsNMm1SwZ9tiW2FZxrDszAdfJsRDXup5Q1sEx6VvkkKkJtu4wk0r379K6avjOu7jOaAssyx0ZSWJXlF5Mg5H83HJxWxMqFUoe8lfP4c2z0CzfYiMRbYnXz8hLn2Cg52AbA5VBqjjk2Fh1LkIJlSkiIHl5EEumlzJgKaJWVfoQ8m5swNqLGGsCT1XV9O6PEDIyNqGl/xfTjaDvFBH439mwejrEBMPSWvvGz/JuDsZmjY1e8184D3tYDMDa0XUJB4bVMPYhy6H/I2NyGsRmdYnsQpY9PxYxp5BiLSsiDH+uKSr+Sjwh2gEowy0giq8R5emLqRiPbLgdjY4yBJklB74hDo5bLSCKdsanjuUoJXhAV79nMZ2xENY72OIhRPQ5OZWwQtxvzBKoSvAFRvoBfaee3NjWPyNgAGJ4sLfM5G2NTaecpjE1jXApN/Xwsxobt10CfAuscvfUamxvNsRkHll32Ty/xL3a+eebYpDQ5X8D6DNPbG5t7zbGZW7OdcWWDPH6NafJTtFr3+Z9+1Tk23CAq5NncgLERlVQjVz+gK0JGxkasQlPqRJXkHbEFbISENzY26YOZychjDjCYQUklmiwhmolTQpoP2vlH/+3LSOIuc2xoza1OhFiLVcjY3IKxGU1Nzw7H+EIJNJaocMTB4v6qoBQZy9TMUqMUNY9BHm8vBvnMgWluPmcyZbP9Szl1Q3nWoNSXkUTyQEUqCSEqrUyLEyHWOOAo6kjPZi5jI2oZRLnJNE0RuLaZ0VhjbfxKQRmjlJGoUJrec5YfeWZUxyCTZwNbILXKwtiYJj4+v8/aefjz2GUksfwcGzrb3v5hzXsAGM4eY3MTxuZCuLrJtLPnzIdwY70Dghab1pjnd8QJOIZ4m4+FPZtsjA2A4ex43vm16LXz0Lfaei1XGv/yidEl3sOzWeKrKBpE2d/rDwCe/WFUdsZGtFJIZ48y9uSMr7ThxpJV9uKfCaXHCZg+WcWunwXiILwjII/L2EjsrFfnewVzDT59rvPwZyjBXRibuFKSzJTxQatl7rxYowLwzW9sMjM2oplcLt8rwh99oqBcjMnY1Jcqe1GRM0aPFy1g+mT/RDLEHmtszJk7Ch6ZsQEwPFnDzPnk87OWbx2TWqy0dn3HSPTC/Rrte0D+tBE6w8Y+TXf0fb7GejYzegSxUuas+KY/pX08SSNHW2M1rNx7z5kdkQLWnixKzUmNWzRwifcC+hqkmvEY8FqZjy/GlTxeAX3CV1Fp/0PO3rGeZxlJLM/YcBaZu+pp4AsX9ZjxVRRZDjG0LrD6bRJrSUPjWxfLk7rWodfuoksAcbZvoV9ScRZGVxcuTVwYUubR+b984X2xku+Q3y1l2DpuytH8SirLzhDa0qzpC4JzN05cRBLaacySnvSrKPZiuvTUeoeyCbE7m4wrD4f2APaIk6G4xia9tm3WR6UNKqr2pEGlMFqJY56oGa8S2nNsoS6wTU3CeoPzDrnkdeIHsI48mZvVRuerdhLszzq1NYS5u2cvIok5pWin/I2Fgq2BDlOX6s4o215R+k4JkVUI77B9NC4ZRsW1yXug7NDy1br3xxQw6UeivzeeJBNQCc1Ly2oCrOWtblGS4bVWmfJVuwmu3GrSrfFN1CKSmLGkp9bG7HRU/227f47vvuwg3BkZlxJF2mmXGI1ADF3ApZMvLjVohg/m3tHbuPMYUbZu5rg9nSqkqOAUteyRTwwjnOgapx2oJl8hc89NWjnjfgTEt2H4S5qpifDzl5HEjAUiEpdm0brmleP3ScN5xZMk7EdZG4tKD2D5R6QS3nKlIu60ptYUwb0jcqDm/l0tzc1i2QImpfDX67n0XQdO/66dztw9MlBWHfvqRuSthrYZ9/IkJj9oxDRTE+WPLiOJ9FLCOz45U3a+EmW+03V7FmvLzoRxW3i2lhwG8B1W9WV0hAuTgreyzOtPmkrK+ypm2SdG2ZUleEul5DqW6WimFuUZzSz7TDBLao2LWZcEU3TpTmaMBl1xhMIykphTSnjHJ2dK1Uxp2i/bTNHW8TFXWGONNRps0FpfowEdNlhjjZXluKTdYW/1Zq4Hf2fLazWsvc4k/ilH5fUlKWSIxWfY1Qj26LhjrCX1bSLVSH1en7lBhc3UqkeuQdN805m7R1paYI0Nttg7OpUBHfbYosF6fk+uBMnV3Lw8reTQTdREzm30lsI3lcT8UmaZKTXtyvI8JCQzN7q97ZHm3GmvGNaTQVR6OoU1UHpWGXrEMSNkoJ4ql9KPb9L3RTZqeLL12ajQhO5x5k29jbyeRqzOzAx+prD6BjtIEi/+YPTO1Gs7pQxa31ISOUrRRmAjtVgp99rtV/Kqxv4g4InkPSJ5H8Kvj/3kVgnQjhbVuCpOiw220iidonsjGkjusZGe28XInbCasy+yIuhrOSe02KKx+oiH2LFA4uCyArWIvGN1ZjbTImuTkbEhWqO21RE7Ke2WzvhKNRO3lESOUjSfKNqcKn5fiwbb6UkMohmWePtWR2SsKxXhYP3B2ctbel0WnWrNqXPUQ6qddj0xXHCWMx5HbFNyJv1V5p0Xpzbu0OGEE4444iCPI4444YQOnaxXN38Sm+TnbjYtESuHnl00KHk30ttKIkcpZDgmyZxb3jnrjvQ3qnrWZqywwQEndBjQ4YhdYDJbjR2O42Qi7OeoyQA0U14DTjioZefcJB4r7HCQJXU44oA9djOffWR6jvNy+ZUONGhxkP5MJ+WdofWWkUR6KZKWOM6YtlthO2nvwcWPiuFGn2n8/SFaspbHn0N4TZOCgl8YxdgkQ3TkS9k3iQusFxT8IgjviFlghfZR/rmYmoICP4qxSQVzr5yCgoIRJYxSIGpU7IWeaRD12wI7TRYUPDSKZyMhtmLACUcxiB3j7g0xNZw1aAsKfnEUzwZykxd1zbxPoVVlxUm5vx9+u3cNCgpePopnAwB7bXnOP/y3i4bc/wUFBQVBFM8GYoWjfm0Q3hSqX/M8vLl3DQoKHgHFs7H5Mb3vdrElfs37ez9+QcFjoBgb2w4H3903i5rsGvR+gb2YCgr+FijGxtworvduprpX/v86lPk1BQVMFGNj7hX1xj2QLfbKxqs/ho8oKChgohib6ya7Pc74in+5AyOxUzbl+jEUtqagIAJlNOoyGhU0HmKj7PhXTE1BQSSKZ4PhGWcAjVj77hKtYmo+FVNTUBCL4tlAmWnjWCZC1LhyNT3+Xb7wLiiIR/FsAAzPGKneo9iJiv4marHHaTI1X/GvYmoKClJQPBsJhZF5xhP+AvAKr7FWR5/wqcyqKShIRTE2E0QNdbRJRY/vaItHU1AwB8XYEIgaDX7HCq9QoccZZ5zxrZiZgoL5+H+kW57W7x4IeAAAACJ0RVh0Y29tbWVudABSZW5kZXJlZCBieSBRdWlja0xhVGVYLmNvbSBJ0LYAAAAldEVYdGRhdGU6Y3JlYXRlADIwMjUtMDItMjJUMTk6MTI6MDUrMDk6MDCQ7KYpAAAAJXRFWHRkYXRlOm1vZGlmeQAyMDI1LTAyLTIyVDE5OjEyOjA1KzA5OjAw4bEelQAAAABJRU5ErkJggg==;" vertex="1" parent="1">
                    <mxGeometry x="2053.58" y="370.5" width="234.83" height="39" as="geometry"/>
                </mxCell>
                <mxCell id="81" value="" style="shape=step;perimeter=stepPerimeter;whiteSpace=wrap;html=1;fixedSize=1;" vertex="1" parent="1">
                    <mxGeometry x="-600" y="339.75" width="270" height="121" as="geometry"/>
                </mxCell>
                <mxCell id="82" value="" style="shape=image;verticalLabelPosition=bottom;labelBackgroundColor=default;verticalAlign=top;aspect=fixed;imageAspect=0;image=data:image/png,iVBORw0KGgoAAAANSUhEUgAAAjYAAABeCAQAAACah5agAAAABGdBTUEAALGPC/xhBQAAACBjSFJNAAB6JgAAgIQAAPoAAACA6AAAdTAAAOpgAAA6mAAAF3CculE8AAAAAmJLR0QA/4ePzL8AAAAJcEhZcwAADsQAAA7EAZUrDhsAAAAHdElNRQfpAhYTDAUwkh1jAAAWfklEQVR42u1d7ZXbOLK9eGcD4HgjWDoD2RPByhnQngzkDOTjCHw0GdAbgS1noH4RzKozkDJ4JjPg+0GIQuGzAEJUa4zLH92kCIBAFQtVFyAgBoQgVvhfVPKkB/BT+Tv+B/n7K8t/QI9/D8/BYgr+RhAr7FEHb3sa3iXlvkELwNTGHhWuunfVwY/D13u3SAHwD8Y9nyezMQqvYqRRUeEtirH5tfCZYWqAtdgNnxJyv6SpwNPGN/dujgIA+B/GPT9nl/J072oWLAyuzmyScu8j7z/csykKLhDhMAoQK7wCAFR4hdeo0ThvfcIz/g89fkqF+AmUEOpXhKIzQI3XqLG23pgU4ogVXqHC71g5cgXOeMZf6HHGeTjfuzUKAKaxMRLVOFkul8i4wANxxMpy+Ty8npVrhZ3mH/X4ii9Df+/6FuhIMjbWZO+HH/euTMFLhlPV3sz1fUWrmJsnvC+G5mWCw9kYEGYP1RdTU+CD1JmzZajg8+zMd9N/P4Z3xdS8VCQZG0uc/P3eFSl44Rh15gnm6FMjqnlZT5xMP7y/dzUL3EgzNubsiP29K1LwwjHqzGF4gknXzvdtRqQMoxcshjSC2Eg0iHtXpOBlQ+rMb0M/Tcm7oh9+m5V3he6S+73rWeBGgmdjYWzK4HaBFxfGZugBy5hlJZrIDCneAgCeiql52UgJo0zGpkzaK/DjwtiM+NP4fV4gNYZoJZR/4UgxNiZjU2ZoFvghGRt51hq/r8QqIjcd1JQVvFAkcDaFsSmIxZWxkecHwz/+OnxMzHtkbGbyPgW3R7RnUxibgliojI3EzrhpkzwALhmbe9eyIIT4MKowNgWxMMIc6wB42keZeohW8GIRb2wKY1MQC5s5MHmbVJK4MDYPgmjOpjA2BbHQGRtAmRuj4t0QbTIKY/M4iPRsCmNTEAsLYwNg6GHOt0mZAVwYm4dBbBhVGJuCWLjCHDOQWgvO+n4UhbF5GMQam8LYFMTCYQ6GZ4tXHO/bFMbmYRDJ2RTGpiAWNsZG/tKYs37j9KkwNo+EKM+mMDYFsbAzNiOGH+ZqwiJuALwwNg+EuDCqMDYFsfCHOV+MK3GBVGFsHghxxqYwNgWx8JsDc0SqFmvwMX4tXrq8h0AUZ/OSGBtRY413GFfZ73HGE9o8q+iLNT5ihRrAGU/Yx8/9yFTDCh/wBjVeoUaFHj/xjAOe+LUUFT5jjRoVznjGwbcgvajR4B1q1AB6/BcHfM2xZIObsZG/7429Othb1y3B2IgKa/yONapJ037iGd/i1k1eRhIxpUx1e4e3U91GDfseLs1olZ8444AfAd0c2AdWxqUjP3XOAw2O1h9aVDNzri05H1FH5rLCHkfsY9Mp6XeOGg4YuPlijU671GHjuPNgzWI3W1KjzpyitGrgShHN2B55tUvJf+ORQocd+zkXkQS/FG9JQQ3DCnvnjwesPSkjmn6b0gTZFaDBiVRuiwZb7GVDd9dmQo0WJxzRRNfwkutFeB1Wie0UbW6w1hT8gB02aLDBTqn5JpjPRv7TYoOtkrLV7qsm1emmsrbTtdM88y3bovXeY77QTL1Cy2uLhOeusCMXjlPLtOSV3jLyWkQS3FIGDMBKafMDWmylfgVrhloxNEe0Fs30SC9GAKYlXPNTZ1GBmjyD1rNI9ZDmBuvY55QvxvFqWJRet2P3YrSnZiijkpYamqP5GqGZFGLLeIqTYnqvOSu5opb5GWWhlgo0y3uV8vKa++k1uR4dM/fxCRP9R+8TdddnwVaXPfEhjgEjsIgkLKW4jVp71S+jZq1yYmiY9CStXh1J6fA1Y0RgXMot5ED5jXJysqmYvOM0YACx0i0j99HUHLSrV5Fxe1vaI7J9P1TEkJ7cL+h0n8fbwgmagSStJ40vVrKVTPVWn4XtGTp1pgrc1RmXGN4KKgxgGyb2E9NA2qk5Sgt13qBjEUlIPXWVcu0+K1m7ztUBk/LIPfINcYZmfkOlaANDCHdmbMhLfHDeNTbIVustg1G9rJ2Rr6p4zOekQQHzRdXibX/YUcl7nUyIbIVGS3U9OckyB1jMthH7J3MiYcbGIlu2bt2CsSEhcCB4ViTt9HuXkYTU9o2zFNmak/fk6QJJRKBIToZPHj8ONTm13JcmhiH0yLkPjpNGVIC+8sFgxux/lOuXgxeM0dOKlYa2bZiPufRajpcBHSyvODlZSdUweuXJlFlVLlJqDMZmgKGm3roZOpGRsSHEZ5CtIt2vwzguIwmcgqXUSn6BFiOlSjMp/Z3AG09JDsvvbEHckbEhpibQ5xHLPAk0kGanNqyz4TlkIC2d9ZpqLRtj0uzOamOvDTlppRk1WibNy/DWjOHdWbQr7I1mZmzIM7DqTIyT7eVaRBJS5zbeUrZTewX1i9TqMGB6/8JdtvrEFt3ni6LTL+USclQVGEQt8UYYTyodzoPzF486BRSEwxXR14zZT8s6WvPHEVYmw3Jr40hND0YtvDoTlJiji/Cmy8vYTFzGeDDH4DRqwUizjCRGDQqUspcmhNGV0fdtCtI42k/Ji8r7ROxmHbAYY6O9vpxeUu8RDoH7R7tt8X4IycZr7kjGRpuxwH6tpbGx9P7SKW8d19Vj78lZPSKG/S06wwzCLOX6x9syMjaoSOkd31siXbCmH8tIQhrdPaMUZlemBfUR7ay9L4Zh4zbqnRgbrcc7sNLohtGvtKOw7A4qNQWcERJ6WgXubslphPl2y0BKyhR0o11w+ARGQJPu1zAZG3l35AB4TsZGq3PE6BtNeQ9JyHYLl8I2zJbwjdth0DL94SNbHNbq5T8Miow3c7bSLvjHFCzjBY7GCZYex9gYBpztQUy9lkUGo29lud5qF5pA3uMxw3PgMzbW1g6kzcfYxIe+zrR0qHgRSTiDKN1ksGl+y/xgpmaGBjq4D9Dpl+YLObrazAlyugMZuPsER9+i2WmGsLTG9g9g625uhJJfFMnyi8OpNgK8g/fJDujQ4TBnhk0MYyPvb41LTl8vH2OjSTkyR80fU2S4lCRceRiMD9s5MFLyg/sA5cHL5C6MjeEIVknpvKGXrJk9ZqamjsPYRLjjhq/IrJ3iudkmoo91twQX2mkiDxMhvSjGZoCDZXB4LrkYG6PMyLDM3SEtIwlZyjZYSkRLaY5FhPkNjavyMrkDY2MEQ3z7SntIP2OzszeLpXyGw66dVkElSaidIlJL/rLuxrOmDMnPlF8UY6PVLNguuRgbrReP9pR0pmlpSbgGNwz3gE9563of8cGNZqYq43dWJmYUd3PGxog5+YzGiZ/OFVcbasSZ0UoF7FUjIyzlRsXXj/XsXw07gsI5vESi/MbnjArELKSmw2TnYWyM8qK+ZBtg6Yanp11GEs7BdfpcMX6NNgkhIiU1U7whf8tNnX5pXhNFP3gMvaWlZNTMPVvlenBGotiMjaGizKBUmb7u6vFPsI9RJX1EMUuC45NWSanUwxYiZGJsjMHlyKf1dYnLSMKlv2mztyw1ijFTtHu28UiMTMxY+uaMjSFE/geNEYzNANSOcagoktkqYN9ISqdd4MxNVlcRcX/EX9l9JO20urn85BT86HRmwG6biZqFsTEG2xPyM3z+yeNfRhJO/U0uJb6TdbRFmEdiCWUJxqbTLvCDqAjGxpNLgn3nCtgSLHjDAazI+iRdfG94B8Zm1JnoIMHwaAfYiMYsjI2hYwlehuEbBeiFZSQRE9AbaelpRKCqtafljf0HY7XBm608LCr7AoRii4pc6CMWYfxAzn4kPhpdqrINJ9B2njh7llb8qJ2f6WKKYlxqsUaN13gLmu+fQ8qukVSCSyxzmrgQ+dCLH8YyoZ+MJ86wV5ShY2n56Zvq/WS1y5wSOaCrOEeUoq3/3EcsQVvT9rS+sQk9QCbGBnv4aE714I9E0fAnMarXegZWLhGMTcojdWjTSflHYWwsbT8epH/Nw9gYOsaana7lYRIMAU9gGUnMmBGdTiwzUgY9G91iIdNeUaJGA+C15ZeV0V/sOTkCmGHTCf4gZ19ZaWif5ezTo/YOOOOMZ/yF55lLuVPv6OaejdSZPmXB9OFZPEPfn+wj2eAlh18zR8f0J1GfPiSnZSSR/hYwtTgtZTiMutVeUaP6fLP88od+IWJ/g/TGUkE3SvvGSsMVsBmUvidnPYCfMQ5sCJp5O+fYM4HVFql68sV48TfE2OTYK8rQMXxPyOWNdt77b19GEhEBvYl0M8VIGTY2t2JsPgA4WyM73bzFeFIZPBuxIr4ciy/SBOzr0/Ue9Tyk8kpcPAxjM2L4IXrNm67ERtmWJMfu3rqOpb34ei7/ZbXLBS/OrzG0mM/YUJ7tbE8Z3qTOdBUzNJJoUMFFvOpONLs8LeRL9Q5or8fr8dbsNMm1SwZ9tiW2FZxrDszAdfJsRDXup5Q1sEx6VvkkKkJtu4wk0r379K6avjOu7jOaAssyx0ZSWJXlF5Mg5H83HJxWxMqFUoe8lfP4c2z0CzfYiMRbYnXz8hLn2Cg52AbA5VBqjjk2Fh1LkIJlSkiIHl5EEumlzJgKaJWVfoQ8m5swNqLGGsCT1XV9O6PEDIyNqGl/xfTjaDvFBH439mwejrEBMPSWvvGz/JuDsZmjY1e8184D3tYDMDa0XUJB4bVMPYhy6H/I2NyGsRmdYnsQpY9PxYxp5BiLSsiDH+uKSr+Sjwh2gEowy0giq8R5emLqRiPbLgdjY4yBJklB74hDo5bLSCKdsanjuUoJXhAV79nMZ2xENY72OIhRPQ5OZWwQtxvzBKoSvAFRvoBfaee3NjWPyNgAGJ4sLfM5G2NTaecpjE1jXApN/Xwsxobt10CfAuscvfUamxvNsRkHll32Ty/xL3a+eebYpDQ5X8D6DNPbG5t7zbGZW7OdcWWDPH6NafJTtFr3+Z9+1Tk23CAq5NncgLERlVQjVz+gK0JGxkasQlPqRJXkHbEFbISENzY26YOZychjDjCYQUklmiwhmolTQpoP2vlH/+3LSOIuc2xoza1OhFiLVcjY3IKxGU1Nzw7H+EIJNJaocMTB4v6qoBQZy9TMUqMUNY9BHm8vBvnMgWluPmcyZbP9Szl1Q3nWoNSXkUTyQEUqCSEqrUyLEyHWOOAo6kjPZi5jI2oZRLnJNE0RuLaZ0VhjbfxKQRmjlJGoUJrec5YfeWZUxyCTZwNbILXKwtiYJj4+v8/aefjz2GUksfwcGzrb3v5hzXsAGM4eY3MTxuZCuLrJtLPnzIdwY70Dghab1pjnd8QJOIZ4m4+FPZtsjA2A4ex43vm16LXz0Lfaei1XGv/yidEl3sOzWeKrKBpE2d/rDwCe/WFUdsZGtFJIZ48y9uSMr7ThxpJV9uKfCaXHCZg+WcWunwXiILwjII/L2EjsrFfnewVzDT59rvPwZyjBXRibuFKSzJTxQatl7rxYowLwzW9sMjM2oplcLt8rwh99oqBcjMnY1Jcqe1GRM0aPFy1g+mT/RDLEHmtszJk7Ch6ZsQEwPFnDzPnk87OWbx2TWqy0dn3HSPTC/Rrte0D+tBE6w8Y+TXf0fb7GejYzegSxUuas+KY/pX08SSNHW2M1rNx7z5kdkQLWnixKzUmNWzRwifcC+hqkmvEY8FqZjy/GlTxeAX3CV1Fp/0PO3rGeZxlJLM/YcBaZu+pp4AsX9ZjxVRRZDjG0LrD6bRJrSUPjWxfLk7rWodfuoksAcbZvoV9ScRZGVxcuTVwYUubR+b984X2xku+Q3y1l2DpuytH8SirLzhDa0qzpC4JzN05cRBLaacySnvSrKPZiuvTUeoeyCbE7m4wrD4f2APaIk6G4xia9tm3WR6UNKqr2pEGlMFqJY56oGa8S2nNsoS6wTU3CeoPzDrnkdeIHsI48mZvVRuerdhLszzq1NYS5u2cvIok5pWin/I2Fgq2BDlOX6s4o215R+k4JkVUI77B9NC4ZRsW1yXug7NDy1br3xxQw6UeivzeeJBNQCc1Ly2oCrOWtblGS4bVWmfJVuwmu3GrSrfFN1CKSmLGkp9bG7HRU/227f47vvuwg3BkZlxJF2mmXGI1ADF3ApZMvLjVohg/m3tHbuPMYUbZu5rg9nSqkqOAUteyRTwwjnOgapx2oJl8hc89NWjnjfgTEt2H4S5qpifDzl5HEjAUiEpdm0brmleP3ScN5xZMk7EdZG4tKD2D5R6QS3nKlIu60ptYUwb0jcqDm/l0tzc1i2QImpfDX67n0XQdO/66dztw9MlBWHfvqRuSthrYZ9/IkJj9oxDRTE+WPLiOJ9FLCOz45U3a+EmW+03V7FmvLzoRxW3i2lhwG8B1W9WV0hAuTgreyzOtPmkrK+ypm2SdG2ZUleEul5DqW6WimFuUZzSz7TDBLao2LWZcEU3TpTmaMBl1xhMIykphTSnjHJ2dK1Uxp2i/bTNHW8TFXWGONNRps0FpfowEdNlhjjZXluKTdYW/1Zq4Hf2fLazWsvc4k/ilH5fUlKWSIxWfY1Qj26LhjrCX1bSLVSH1en7lBhc3UqkeuQdN805m7R1paYI0Nttg7OpUBHfbYosF6fk+uBMnV3Lw8reTQTdREzm30lsI3lcT8UmaZKTXtyvI8JCQzN7q97ZHm3GmvGNaTQVR6OoU1UHpWGXrEMSNkoJ4ql9KPb9L3RTZqeLL12ajQhO5x5k29jbyeRqzOzAx+prD6BjtIEi/+YPTO1Gs7pQxa31ISOUrRRmAjtVgp99rtV/Kqxv4g4InkPSJ5H8Kvj/3kVgnQjhbVuCpOiw220iidonsjGkjusZGe28XInbCasy+yIuhrOSe02KKx+oiH2LFA4uCyArWIvGN1ZjbTImuTkbEhWqO21RE7Ke2WzvhKNRO3lESOUjSfKNqcKn5fiwbb6UkMohmWePtWR2SsKxXhYP3B2ctbel0WnWrNqXPUQ6qddj0xXHCWMx5HbFNyJv1V5p0Xpzbu0OGEE4444iCPI4444YQOnaxXN38Sm+TnbjYtESuHnl00KHk30ttKIkcpZDgmyZxb3jnrjvQ3qnrWZqywwQEndBjQ4YhdYDJbjR2O42Qi7OeoyQA0U14DTjioZefcJB4r7HCQJXU44oA9djOffWR6jvNy+ZUONGhxkP5MJ+WdofWWkUR6KZKWOM6YtlthO2nvwcWPiuFGn2n8/SFaspbHn0N4TZOCgl8YxdgkQ3TkS9k3iQusFxT8IgjviFlghfZR/rmYmoICP4qxSQVzr5yCgoIRJYxSIGpU7IWeaRD12wI7TRYUPDSKZyMhtmLACUcxiB3j7g0xNZw1aAsKfnEUzwZykxd1zbxPoVVlxUm5vx9+u3cNCgpePopnAwB7bXnOP/y3i4bc/wUFBQVBFM8GYoWjfm0Q3hSqX/M8vLl3DQoKHgHFs7H5Mb3vdrElfs37ez9+QcFjoBgb2w4H3903i5rsGvR+gb2YCgr+FijGxtworvduprpX/v86lPk1BQVMFGNj7hX1xj2QLfbKxqs/ho8oKChgohib6ya7Pc74in+5AyOxUzbl+jEUtqagIAJlNOoyGhU0HmKj7PhXTE1BQSSKZ4PhGWcAjVj77hKtYmo+FVNTUBCL4tlAmWnjWCZC1LhyNT3+Xb7wLiiIR/FsAAzPGKneo9iJiv4marHHaTI1X/GvYmoKClJQPBsJhZF5xhP+AvAKr7FWR5/wqcyqKShIRTE2E0QNdbRJRY/vaItHU1AwB8XYEIgaDX7HCq9QoccZZ5zxrZiZgoL5+H+kW57W7x4IeAAAACJ0RVh0Y29tbWVudABSZW5kZXJlZCBieSBRdWlja0xhVGVYLmNvbSBJ0LYAAAAldEVYdGRhdGU6Y3JlYXRlADIwMjUtMDItMjJUMTk6MTI6MDUrMDk6MDCQ7KYpAAAAJXRFWHRkYXRlOm1vZGlmeQAyMDI1LTAyLTIyVDE5OjEyOjA1KzA5OjAw4bEelQAAAABJRU5ErkJggg==;" vertex="1" parent="1">
                    <mxGeometry x="-576.42" y="380.75" width="234.83" height="39" as="geometry"/>
                </mxCell>
                <mxCell id="83" value="&lt;font style=&quot;font-size: 38px;&quot;&gt;+&lt;/font&gt;" style="text;html=1;align=center;verticalAlign=middle;resizable=0;points=[];autosize=1;strokeColor=none;fillColor=none;" vertex="1" parent="1">
                    <mxGeometry x="-930" y="360" width="50" height="60" as="geometry"/>
                </mxCell>
            </root>
        </mxGraphModel>
    </diagram>
</mxfile>